<?xml version="1.0" encoding="UTF-8" standalone="no"?>
<svg xmlns="http://www.w3.org/2000/svg" id="bluesky" width="16" height="16" viewBox="0 0 16 16"
  preserveAspectRatio="xMidYMid meet" rendering="crispEdges">
  <rect id="2-3" x="1" y="2" width="1" height="1" shape-rendering="crispEdges"
    style="fill:var(--svg-fill-color);opacity:255;"></rect>
  <rect id="3-3" x="2" y="2" width="1" height="1" shape-rendering="crispEdges"
    style="fill:var(--svg-fill-color);opacity:255;"></rect>
  <rect id="14-3" x="13" y="2" width="1" height="1" shape-rendering="crispEdges"
    style="fill:var(--svg-fill-color);opacity:255;"></rect>
  <rect id="15-3" x="14" y="2" width="1" height="1" shape-rendering="crispEdges"
    style="fill:var(--svg-fill-color);opacity:255;"></rect>
  <rect id="2-4" x="1" y="3" width="1" height="1" shape-rendering="crispEdges"
    style="fill:var(--svg-fill-color);opacity:255;"></rect>
  <rect id="3-4" x="2" y="3" width="1" height="1" shape-rendering="crispEdges"
    style="fill:var(--svg-fill-color);opacity:255;"></rect>
  <rect id="4-4" x="3" y="3" width="1" height="1" shape-rendering="crispEdges"
    style="fill:var(--svg-fill-color);opacity:255;"></rect>
  <rect id="13-4" x="12" y="3" width="1" height="1" shape-rendering="crispEdges"
    style="fill:var(--svg-fill-color);opacity:255;"></rect>
  <rect id="14-4" x="13" y="3" width="1" height="1" shape-rendering="crispEdges"
    style="fill:var(--svg-fill-color);opacity:255;"></rect>
  <rect id="15-4" x="14" y="3" width="1" height="1" shape-rendering="crispEdges"
    style="fill:var(--svg-fill-color);opacity:255;"></rect>
  <rect id="2-5" x="1" y="4" width="1" height="1" shape-rendering="crispEdges"
    style="fill:var(--svg-fill-color);opacity:255;"></rect>
  <rect id="3-5" x="2" y="4" width="1" height="1" shape-rendering="crispEdges"
    style="fill:var(--svg-fill-color);opacity:255;"></rect>
  <rect id="4-5" x="3" y="4" width="1" height="1" shape-rendering="crispEdges"
    style="fill:var(--svg-fill-color);opacity:255;"></rect>
  <rect id="5-5" x="4" y="4" width="1" height="1" shape-rendering="crispEdges"
    style="fill:var(--svg-fill-color);opacity:255;"></rect>
  <rect id="12-5" x="11" y="4" width="1" height="1" shape-rendering="crispEdges"
    style="fill:var(--svg-fill-color);opacity:255;"></rect>
  <rect id="13-5" x="12" y="4" width="1" height="1" shape-rendering="crispEdges"
    style="fill:var(--svg-fill-color);opacity:255;"></rect>
  <rect id="14-5" x="13" y="4" width="1" height="1" shape-rendering="crispEdges"
    style="fill:var(--svg-fill-color);opacity:255;">
  </rect>
  <rect id="15-5" x="14" y="4" width="1" height="1" shape-rendering="crispEdges"
    style="fill:var(--svg-fill-color);opacity:255;"></rect>
  <rect id="2-6" x="1" y="5" width="1" height="1" shape-rendering="crispEdges"
    style="fill:var(--svg-fill-color);opacity:255;"></rect>
  <rect id="3-6" x="2" y="5" width="1" height="1" shape-rendering="crispEdges"
    style="fill:var(--svg-fill-color);opacity:255;"></rect>
  <rect id="4-6" x="3" y="5" width="1" height="1" shape-rendering="crispEdges"
    style="fill:var(--svg-fill-color);opacity:255;"></rect>
  <rect id="5-6" x="4" y="5" width="1" height="1" shape-rendering="crispEdges"
    style="fill:var(--svg-fill-color);opacity:255;"></rect>
  <rect id="6-6" x="5" y="5" width="1" height="1" shape-rendering="crispEdges"
    style="fill:var(--svg-fill-color);opacity:255;"></rect>
  <rect id="11-6" x="10" y="5" width="1" height="1" shape-rendering="crispEdges"
    style="fill:var(--svg-fill-color);opacity:255;"></rect>
  <rect id="12-6" x="11" y="5" width="1" height="1" shape-rendering="crispEdges"
    style="fill:var(--svg-fill-color);opacity:255;"></rect>
  <rect id="13-6" x="12" y="5" width="1" height="1" shape-rendering="crispEdges"
    style="fill:var(--svg-fill-color);opacity:255;"></rect>
  <rect id="14-6" x="13" y="5" width="1" height="1" shape-rendering="crispEdges"
    style="fill:var(--svg-fill-color);opacity:255;"></rect>
  <rect id="15-6" x="14" y="5" width="1" height="1" shape-rendering="crispEdges"
    style="fill:var(--svg-fill-color);opacity:255;"></rect>
  <rect id="2-7" x="1" y="6" width="1" height="1" shape-rendering="crispEdges"
    style="fill:var(--svg-fill-color);opacity:255;"></rect>
  <rect id="3-7" x="2" y="6" width="1" height="1" shape-rendering="crispEdges"
    style="fill:var(--svg-fill-color);opacity:255;"></rect>
  <rect id="4-7" x="3" y="6" width="1" height="1" shape-rendering="crispEdges"
    style="fill:var(--svg-fill-color);opacity:255;"></rect>
  <rect id="5-7" x="4" y="6" width="1" height="1" shape-rendering="crispEdges"
    style="fill:var(--svg-fill-color);opacity:255;"></rect>
  <rect id="6-7" x="5" y="6" width="1" height="1" shape-rendering="crispEdges"
    style="fill:var(--svg-fill-color);opacity:255;"></rect>
  <rect id="7-7" x="6" y="6" width="1" height="1" shape-rendering="crispEdges"
    style="fill:var(--svg-fill-color);opacity:255;"></rect>
  <rect id="10-7" x="9" y="6" width="1" height="1" shape-rendering="crispEdges"
    style="fill:var(--svg-fill-color);opacity:255;"></rect>
  <rect id="11-7" x="10" y="6" width="1" height="1" shape-rendering="crispEdges"
    style="fill:var(--svg-fill-color);opacity:255;"></rect>
  <rect id="12-7" x="11" y="6" width="1" height="1" shape-rendering="crispEdges"
    style="fill:var(--svg-fill-color);opacity:255;"></rect>
  <rect id="13-7" x="12" y="6" width="1" height="1" shape-rendering="crispEdges"
    style="fill:var(--svg-fill-color);opacity:255;"></rect>
  <rect id="14-7" x="13" y="6" width="1" height="1" shape-rendering="crispEdges"
    style="fill:var(--svg-fill-color);opacity:255;"></rect>
  <rect id="15-7" x="14" y="6" width="1" height="1" shape-rendering="crispEdges"
    style="fill:var(--svg-fill-color);opacity:255;"></rect>
  <rect id="2-8" x="1" y="7" width="1" height="1" shape-rendering="crispEdges"
    style="fill:var(--svg-fill-color);opacity:255;"></rect>
  <rect id="3-8" x="2" y="7" width="1" height="1" shape-rendering="crispEdges"
    style="fill:var(--svg-fill-color);opacity:255;"></rect>
  <rect id="4-8" x="3" y="7" width="1" height="1" shape-rendering="crispEdges"
    style="fill:var(--svg-fill-color);opacity:255;"></rect>
  <rect id="5-8" x="4" y="7" width="1" height="1" shape-rendering="crispEdges"
    style="fill:var(--svg-fill-color);opacity:255;"></rect>
  <rect id="6-8" x="5" y="7" width="1" height="1" shape-rendering="crispEdges"
    style="fill:var(--svg-fill-color);opacity:255;"></rect>
  <rect id="7-8" x="6" y="7" width="1" height="1" shape-rendering="crispEdges"
    style="fill:var(--svg-fill-color);opacity:255;"></rect>
  <rect id="10-8" x="9" y="7" width="1" height="1" shape-rendering="crispEdges"
    style="fill:var(--svg-fill-color);opacity:255;"></rect>
  <rect id="11-8" x="10" y="7" width="1" height="1" shape-rendering="crispEdges"
    style="fill:var(--svg-fill-color);opacity:255;">
  </rect>
  <rect id="12-8" x="11" y="7" width="1" height="1" shape-rendering="crispEdges"
    style="fill:var(--svg-fill-color);opacity:255;"></rect>
  <rect id="13-8" x="12" y="7" width="1" height="1" shape-rendering="crispEdges"
    style="fill:var(--svg-fill-color);opacity:255;"></rect>
  <rect id="14-8" x="13" y="7" width="1" height="1" shape-rendering="crispEdges"
    style="fill:var(--svg-fill-color);opacity:255;"></rect>
  <rect id="15-8" x="14" y="7" width="1" height="1" shape-rendering="crispEdges"
    style="fill:var(--svg-fill-color);opacity:255;"></rect>
  <rect id="3-9" x="2" y="8" width="1" height="1" shape-rendering="crispEdges"
    style="fill:var(--svg-fill-color);opacity:255;"></rect>
  <rect id="4-9" x="3" y="8" width="1" height="1" shape-rendering="crispEdges"
    style="fill:var(--svg-fill-color);opacity:255;"></rect>
  <rect id="5-9" x="4" y="8" width="1" height="1" shape-rendering="crispEdges"
    style="fill:var(--svg-fill-color);opacity:255;"></rect>
  <rect id="6-9" x="5" y="8" width="1" height="1" shape-rendering="crispEdges"
    style="fill:var(--svg-fill-color);opacity:255;"></rect>
  <rect id="7-9" x="6" y="8" width="1" height="1" shape-rendering="crispEdges"
    style="fill:var(--svg-fill-color);opacity:255;"></rect>
  <rect id="8-9" x="7" y="8" width="1" height="1" shape-rendering="crispEdges"
    style="fill:var(--svg-fill-color);opacity:255;"></rect>
  <rect id="9-9" x="8" y="8" width="1" height="1" shape-rendering="crispEdges"
    style="fill:var(--svg-fill-color);opacity:255;"></rect>
  <rect id="10-9" x="9" y="8" width="1" height="1" shape-rendering="crispEdges"
    style="fill:var(--svg-fill-color);opacity:255;"></rect>
  <rect id="11-9" x="10" y="8" width="1" height="1" shape-rendering="crispEdges"
    style="fill:var(--svg-fill-color);opacity:255;"></rect>
  <rect id="12-9" x="11" y="8" width="1" height="1" shape-rendering="crispEdges"
    style="fill:var(--svg-fill-color);opacity:255;"></rect>
  <rect id="13-9" x="12" y="8" width="1" height="1" shape-rendering="crispEdges"
    style="fill:var(--svg-fill-color);opacity:255;"></rect>
  <rect id="14-9" x="13" y="8" width="1" height="1" shape-rendering="crispEdges"
    style="fill:var(--svg-fill-color);opacity:255;">
  </rect>
  <rect id="4-10" x="3" y="9" width="1" height="1" shape-rendering="crispEdges"
    style="fill:var(--svg-fill-color);opacity:255;"></rect>
  <rect id="5-10" x="4" y="9" width="1" height="1" shape-rendering="crispEdges"
    style="fill:var(--svg-fill-color);opacity:255;"></rect>
  <rect id="6-10" x="5" y="9" width="1" height="1" shape-rendering="crispEdges"
    style="fill:var(--svg-fill-color);opacity:255;"></rect>
  <rect id="7-10" x="6" y="9" width="1" height="1" shape-rendering="crispEdges"
    style="fill:var(--svg-fill-color);opacity:255;"></rect>
  <rect id="8-10" x="7" y="9" width="1" height="1" shape-rendering="crispEdges"
    style="fill:var(--svg-fill-color);opacity:255;"></rect>
  <rect id="9-10" x="8" y="9" width="1" height="1" shape-rendering="crispEdges"
    style="fill:var(--svg-fill-color);opacity:255;"></rect>
  <rect id="10-10" x="9" y="9" width="1" height="1" shape-rendering="crispEdges"
    style="fill:var(--svg-fill-color);opacity:255;"></rect>
  <rect id="11-10" x="10" y="9" width="1" height="1" shape-rendering="crispEdges"
    style="fill:var(--svg-fill-color);opacity:255;"></rect>
  <rect id="12-10" x="11" y="9" width="1" height="1" shape-rendering="crispEdges"
    style="fill:var(--svg-fill-color);opacity:255;"></rect>
  <rect id="13-10" x="12" y="9" width="1" height="1" shape-rendering="crispEdges"
    style="fill:var(--svg-fill-color);opacity:255;"></rect>
  <rect id="5-11" x="4" y="10" width="1" height="1" shape-rendering="crispEdges"
    style="fill:var(--svg-fill-color);opacity:255;"></rect>
  <rect id="6-11" x="5" y="10" width="1" height="1" shape-rendering="crispEdges"
    style="fill:var(--svg-fill-color);opacity:255;"></rect>
  <rect id="7-11" x="6" y="10" width="1" height="1" shape-rendering="crispEdges"
    style="fill:var(--svg-fill-color);opacity:255;"></rect>
  <rect id="8-11" x="7" y="10" width="1" height="1" shape-rendering="crispEdges"
    style="fill:var(--svg-fill-color);opacity:255;"></rect>
  <rect id="9-11" x="8" y="10" width="1" height="1" shape-rendering="crispEdges"
    style="fill:var(--svg-fill-color);opacity:255;"></rect>
  <rect id="10-11" x="9" y="10" width="1" height="1" shape-rendering="crispEdges"
    style="fill:var(--svg-fill-color);opacity:255;"></rect>
  <rect id="11-11" x="10" y="10" width="1" height="1" shape-rendering="crispEdges"
    style="fill:var(--svg-fill-color);opacity:255;"></rect>
  <rect id="12-11" x="11" y="10" width="1" height="1" shape-rendering="crispEdges"
    style="fill:var(--svg-fill-color);opacity:255;"></rect>
  <rect id="4-12" x="3" y="11" width="1" height="1" shape-rendering="crispEdges"
    style="fill:var(--svg-fill-color);opacity:255;"></rect>
  <rect id="5-12" x="4" y="11" width="1" height="1" shape-rendering="crispEdges"
    style="fill:var(--svg-fill-color);opacity:255;"></rect>
  <rect id="6-12" x="5" y="11" width="1" height="1" shape-rendering="crispEdges"
    style="fill:var(--svg-fill-color);opacity:255;"></rect>
  <rect id="7-12" x="6" y="11" width="1" height="1" shape-rendering="crispEdges"
    style="fill:var(--svg-fill-color);opacity:255;"></rect>
  <rect id="8-12" x="7" y="11" width="1" height="1" shape-rendering="crispEdges"
    style="fill:var(--svg-fill-color);opacity:255;"></rect>
  <rect id="9-12" x="8" y="11" width="1" height="1" shape-rendering="crispEdges"
    style="fill:var(--svg-fill-color);opacity:255;"></rect>
  <rect id="10-12" x="9" y="11" width="1" height="1" shape-rendering="crispEdges"
    style="fill:var(--svg-fill-color);opacity:255;"></rect>
  <rect id="11-12" x="10" y="11" width="1" height="1" shape-rendering="crispEdges"
    style="fill:var(--svg-fill-color);opacity:255;"></rect>
  <rect id="12-12" x="11" y="11" width="1" height="1" shape-rendering="crispEdges"
    style="fill:var(--svg-fill-color);opacity:255;">
  </rect>
  <rect id="13-12" x="12" y="11" width="1" height="1" shape-rendering="crispEdges"
    style="fill:var(--svg-fill-color);opacity:255;"></rect>
  <rect id="3-13" x="2" y="12" width="1" height="1" shape-rendering="crispEdges"
    style="fill:var(--svg-fill-color);opacity:255;"></rect>
  <rect id="4-13" x="3" y="12" width="1" height="1" shape-rendering="crispEdges"
    style="fill:var(--svg-fill-color);opacity:255;"></rect>
  <rect id="5-13" x="4" y="12" width="1" height="1" shape-rendering="crispEdges"
    style="fill:var(--svg-fill-color);opacity:255;"></rect>
  <rect id="6-13" x="5" y="12" width="1" height="1" shape-rendering="crispEdges"
    style="fill:var(--svg-fill-color);opacity:255;"></rect>
  <rect id="7-13" x="6" y="12" width="1" height="1" shape-rendering="crispEdges"
    style="fill:var(--svg-fill-color);opacity:255;"></rect>
  <rect id="10-13" x="9" y="12" width="1" height="1" shape-rendering="crispEdges"
    style="fill:var(--svg-fill-color);opacity:255;"></rect>
  <rect id="11-13" x="10" y="12" width="1" height="1" shape-rendering="crispEdges"
    style="fill:var(--svg-fill-color);opacity:255;"></rect>
  <rect id="12-13" x="11" y="12" width="1" height="1" shape-rendering="crispEdges"
    style="fill:var(--svg-fill-color);opacity:255;"></rect>
  <rect id="13-13" x="12" y="12" width="1" height="1" shape-rendering="crispEdges"
    style="fill:var(--svg-fill-color);opacity:255;">
  </rect>
  <rect id="14-13" x="13" y="12" width="1" height="1" shape-rendering="crispEdges"
    style="fill:var(--svg-fill-color);opacity:255;"></rect>
  <rect id="3-14" x="2" y="13" width="1" height="1" shape-rendering="crispEdges"
    style="fill:var(--svg-fill-color);opacity:255;"></rect>
  <rect id="4-14" x="3" y="13" width="1" height="1" shape-rendering="crispEdges"
    style="fill:var(--svg-fill-color);opacity:255;"></rect>
  <rect id="5-14" x="4" y="13" width="1" height="1" shape-rendering="crispEdges"
    style="fill:var(--svg-fill-color);opacity:255;"></rect>
  <rect id="6-14" x="5" y="13" width="1" height="1" shape-rendering="crispEdges"
    style="fill:var(--svg-fill-color);opacity:255;"></rect>
  <rect id="7-14" x="6" y="13" width="1" height="1" shape-rendering="crispEdges"
    style="fill:var(--svg-fill-color);opacity:255;"></rect>
  <rect id="10-14" x="9" y="13" width="1" height="1" shape-rendering="crispEdges"
    style="fill:var(--svg-fill-color);opacity:255;"></rect>
  <rect id="11-14" x="10" y="13" width="1" height="1" shape-rendering="crispEdges"
    style="fill:var(--svg-fill-color);opacity:255;"></rect>
  <rect id="12-14" x="11" y="13" width="1" height="1" shape-rendering="crispEdges"
    style="fill:var(--svg-fill-color);opacity:255;"></rect>
  <rect id="13-14" x="12" y="13" width="1" height="1" shape-rendering="crispEdges"
    style="fill:var(--svg-fill-color);opacity:255;"></rect>
  <rect id="14-14" x="13" y="13" width="1" height="1" shape-rendering="crispEdges"
    style="fill:var(--svg-fill-color);opacity:255;"></rect>
  <rect id="4-15" x="3" y="14" width="1" height="1" shape-rendering="crispEdges"
    style="fill:var(--svg-fill-color);opacity:255;"></rect>
  <rect id="5-15" x="4" y="14" width="1" height="1" shape-rendering="crispEdges"
    style="fill:var(--svg-fill-color);opacity:255;"></rect>
  <rect id="6-15" x="5" y="14" width="1" height="1" shape-rendering="crispEdges"
    style="fill:var(--svg-fill-color);opacity:255;"></rect>
  <rect id="11-15" x="10" y="14" width="1" height="1" shape-rendering="crispEdges"
    style="fill:var(--svg-fill-color);opacity:255;"></rect>
  <rect id="12-15" x="11" y="14" width="1" height="1" shape-rendering="crispEdges"
    style="fill:var(--svg-fill-color);opacity:255;"></rect>
  <rect id="13-15" x="12" y="14" width="1" height="1" shape-rendering="crispEdges"
    style="fill:var(--svg-fill-color);opacity:255;"></rect>
</svg>