<?xml version="1.0" encoding="UTF-8" standalone="no"?>
<svg xmlns="http://www.w3.org/2000/svg" id="github" width="16" height="16" viewBox="0 0 16 16"
  preserveAspectRatio="xMidYMid meet" rendering="crispEdges">
  <rect id="7-2" x="6" y="1" width="1" height="1" shape-rendering="crispEdges"
    style="fill:var(--svg-fill-color);opacity:255;"></rect>
  <rect id="8-2" x="7" y="1" width="1" height="1" shape-rendering="crispEdges"
    style="fill:var(--svg-fill-color);opacity:255;"></rect>
  <rect id="9-2" x="8" y="1" width="1" height="1" shape-rendering="crispEdges"
    style="fill:var(--svg-fill-color);opacity:255;"></rect>
  <rect id="10-2" x="9" y="1" width="1" height="1" shape-rendering="crispEdges"
    style="fill:var(--svg-fill-color);opacity:255;"></rect>
  <rect id="5-3" x="4" y="2" width="1" height="1" shape-rendering="crispEdges"
    style="fill:var(--svg-fill-color);opacity:255;"></rect>
  <rect id="6-3" x="5" y="2" width="1" height="1" shape-rendering="crispEdges"
    style="fill:var(--svg-fill-color);opacity:255;"></rect>
  <rect id="11-3" x="10" y="2" width="1" height="1" shape-rendering="crispEdges"
    style="fill:var(--svg-fill-color);opacity:255;"></rect>
  <rect id="12-3" x="11" y="2" width="1" height="1" shape-rendering="crispEdges"
    style="fill:var(--svg-fill-color);opacity:255;"></rect>
  <rect id="4-4" x="3" y="3" width="1" height="1" shape-rendering="crispEdges"
    style="fill:var(--svg-fill-color);opacity:255;"></rect>
  <rect id="13-4" x="12" y="3" width="1" height="1" shape-rendering="crispEdges"
    style="fill:var(--svg-fill-color);opacity:255;"></rect>
  <rect id="3-5" x="2" y="4" width="1" height="1" shape-rendering="crispEdges"
    style="fill:var(--svg-fill-color);opacity:255;"></rect>
  <rect id="7-5" x="6" y="4" width="1" height="1" shape-rendering="crispEdges"
    style="fill:var(--svg-fill-color);opacity:255;"></rect>
  <rect id="11-5" x="10" y="4" width="1" height="1" shape-rendering="crispEdges"
    style="fill:var(--svg-fill-color);opacity:255;"></rect>
  <rect id="14-5" x="13" y="4" width="1" height="1" shape-rendering="crispEdges"
    style="fill:var(--svg-fill-color);opacity:255;"></rect>
  <rect id="3-6" x="2" y="5" width="1" height="1" shape-rendering="crispEdges"
    style="fill:var(--svg-fill-color);opacity:255;"></rect>
  <rect id="6-6" x="5" y="5" width="1" height="1" shape-rendering="crispEdges"
    style="fill:var(--svg-fill-color);opacity:255;"></rect>
  <rect id="7-6" x="6" y="5" width="1" height="1" shape-rendering="crispEdges"
    style="fill:var(--svg-fill-color);opacity:255;"></rect>
  <rect id="8-6" x="7" y="5" width="1" height="1" shape-rendering="crispEdges"
    style="fill:var(--svg-fill-color);opacity:255;"></rect>
  <rect id="9-6" x="8" y="5" width="1" height="1" shape-rendering="crispEdges"
    style="fill:var(--svg-fill-color);opacity:255;"></rect>
  <rect id="10-6" x="9" y="5" width="1" height="1" shape-rendering="crispEdges"
    style="fill:var(--svg-fill-color);opacity:255;"></rect>
  <rect id="11-6" x="10" y="5" width="1" height="1" shape-rendering="crispEdges"
    style="fill:var(--svg-fill-color);opacity:255;"></rect>
  <rect id="12-6" x="11" y="5" width="1" height="1" shape-rendering="crispEdges"
    style="fill:var(--svg-fill-color);opacity:255;"></rect>
  <rect id="14-6" x="13" y="5" width="1" height="1" shape-rendering="crispEdges"
    style="fill:var(--svg-fill-color);opacity:255;"></rect>
  <rect id="2-7" x="1" y="6" width="1" height="1" shape-rendering="crispEdges"
    style="fill:var(--svg-fill-color);opacity:255;"></rect>
  <rect id="6-7" x="5" y="6" width="1" height="1" shape-rendering="crispEdges"
    style="fill:var(--svg-fill-color);opacity:255;"></rect>
  <rect id="7-7" x="6" y="6" width="1" height="1" shape-rendering="crispEdges"
    style="fill:var(--svg-fill-color);opacity:255;"></rect>
  <rect id="8-7" x="7" y="6" width="1" height="1" shape-rendering="crispEdges"
    style="fill:var(--svg-fill-color);opacity:255;"></rect>
  <rect id="9-7" x="8" y="6" width="1" height="1" shape-rendering="crispEdges"
    style="fill:var(--svg-fill-color);opacity:255;"></rect>
  <rect id="10-7" x="9" y="6" width="1" height="1" shape-rendering="crispEdges"
    style="fill:var(--svg-fill-color);opacity:255;"></rect>
  <rect id="11-7" x="10" y="6" width="1" height="1" shape-rendering="crispEdges"
    style="fill:var(--svg-fill-color);opacity:255;"></rect>
  <rect id="12-7" x="11" y="6" width="1" height="1" shape-rendering="crispEdges"
    style="fill:var(--svg-fill-color);opacity:255;"></rect>
  <rect id="15-7" x="14" y="6" width="1" height="1" shape-rendering="crispEdges"
    style="fill:var(--svg-fill-color);opacity:255;">
  </rect>
  <rect id="2-8" x="1" y="7" width="1" height="1" shape-rendering="crispEdges"
    style="fill:var(--svg-fill-color);opacity:255;"></rect>
  <rect id="5-8" x="4" y="7" width="1" height="1" shape-rendering="crispEdges"
    style="fill:var(--svg-fill-color);opacity:255;"></rect>
  <rect id="6-8" x="5" y="7" width="1" height="1" shape-rendering="crispEdges"
    style="fill:var(--svg-fill-color);opacity:255;"></rect>
  <rect id="7-8" x="6" y="7" width="1" height="1" shape-rendering="crispEdges"
    style="fill:var(--svg-fill-color);opacity:255;"></rect>
  <rect id="8-8" x="7" y="7" width="1" height="1" shape-rendering="crispEdges"
    style="fill:var(--svg-fill-color);opacity:255;"></rect>
  <rect id="9-8" x="8" y="7" width="1" height="1" shape-rendering="crispEdges"
    style="fill:var(--svg-fill-color);opacity:255;"></rect>
  <rect id="10-8" x="9" y="7" width="1" height="1" shape-rendering="crispEdges"
    style="fill:var(--svg-fill-color);opacity:255;"></rect>
  <rect id="11-8" x="10" y="7" width="1" height="1" shape-rendering="crispEdges"
    style="fill:var(--svg-fill-color);opacity:255;"></rect>
  <rect id="12-8" x="11" y="7" width="1" height="1" shape-rendering="crispEdges"
    style="fill:var(--svg-fill-color);opacity:255;"></rect>
  <rect id="13-8" x="12" y="7" width="1" height="1" shape-rendering="crispEdges"
    style="fill:var(--svg-fill-color);opacity:255;"></rect>
  <rect id="15-8" x="14" y="7" width="1" height="1" shape-rendering="crispEdges"
    style="fill:var(--svg-fill-color);opacity:255;"></rect>
  <rect id="2-9" x="1" y="8" width="1" height="1" shape-rendering="crispEdges"
    style="fill:var(--svg-fill-color);opacity:255;"></rect>
  <rect id="5-9" x="4" y="8" width="1" height="1" shape-rendering="crispEdges"
    style="fill:var(--svg-fill-color);opacity:255;"></rect>
  <rect id="6-9" x="5" y="8" width="1" height="1" shape-rendering="crispEdges"
    style="fill:var(--svg-fill-color);opacity:255;"></rect>
  <rect id="7-9" x="6" y="8" width="1" height="1" shape-rendering="crispEdges"
    style="fill:var(--svg-fill-color);opacity:255;"></rect>
  <rect id="8-9" x="7" y="8" width="1" height="1" shape-rendering="crispEdges"
    style="fill:var(--svg-fill-color);opacity:255;"></rect>
  <rect id="9-9" x="8" y="8" width="1" height="1" shape-rendering="crispEdges"
    style="fill:var(--svg-fill-color);opacity:255;"></rect>
  <rect id="10-9" x="9" y="8" width="1" height="1" shape-rendering="crispEdges"
    style="fill:var(--svg-fill-color);opacity:255;"></rect>
  <rect id="11-9" x="10" y="8" width="1" height="1" shape-rendering="crispEdges"
    style="fill:var(--svg-fill-color);opacity:255;"></rect>
  <rect id="12-9" x="11" y="8" width="1" height="1" shape-rendering="crispEdges"
    style="fill:var(--svg-fill-color);opacity:255;"></rect>
  <rect id="13-9" x="12" y="8" width="1" height="1" shape-rendering="crispEdges"
    style="fill:var(--svg-fill-color);opacity:255;"></rect>
  <rect id="15-9" x="14" y="8" width="1" height="1" shape-rendering="crispEdges"
    style="fill:var(--svg-fill-color);opacity:255;"></rect>
  <rect id="2-10" x="1" y="9" width="1" height="1" shape-rendering="crispEdges"
    style="fill:var(--svg-fill-color);opacity:255;"></rect>
  <rect id="4-10" x="3" y="9" width="1" height="1" shape-rendering="crispEdges"
    style="fill:var(--svg-fill-color);opacity:255;">
  </rect>
  <rect id="6-10" x="5" y="9" width="1" height="1" shape-rendering="crispEdges"
    style="fill:var(--svg-fill-color);opacity:255;"></rect>
  <rect id="7-10" x="6" y="9" width="1" height="1" shape-rendering="crispEdges"
    style="fill:var(--svg-fill-color);opacity:255;"></rect>
  <rect id="8-10" x="7" y="9" width="1" height="1" shape-rendering="crispEdges"
    style="fill:var(--svg-fill-color);opacity:255;"></rect>
  <rect id="9-10" x="8" y="9" width="1" height="1" shape-rendering="crispEdges"
    style="fill:var(--svg-fill-color);opacity:255;"></rect>
  <rect id="10-10" x="9" y="9" width="1" height="1" shape-rendering="crispEdges"
    style="fill:var(--svg-fill-color);opacity:255;"></rect>
  <rect id="11-10" x="10" y="9" width="1" height="1" shape-rendering="crispEdges"
    style="fill:var(--svg-fill-color);opacity:255;"></rect>
  <rect id="12-10" x="11" y="9" width="1" height="1" shape-rendering="crispEdges"
    style="fill:var(--svg-fill-color);opacity:255;"></rect>
  <rect id="15-10" x="14" y="9" width="1" height="1" shape-rendering="crispEdges"
    style="fill:var(--svg-fill-color);opacity:255;"></rect>
  <rect id="3-11" x="2" y="10" width="1" height="1" shape-rendering="crispEdges"
    style="fill:var(--svg-fill-color);opacity:255;"></rect>
  <rect id="5-11" x="4" y="10" width="1" height="1" shape-rendering="crispEdges"
    style="fill:var(--svg-fill-color);opacity:255;"></rect>
  <rect id="7-11" x="6" y="10" width="1" height="1" shape-rendering="crispEdges"
    style="fill:var(--svg-fill-color);opacity:255;"></rect>
  <rect id="8-11" x="7" y="10" width="1" height="1" shape-rendering="crispEdges"
    style="fill:var(--svg-fill-color);opacity:255;"></rect>
  <rect id="9-11" x="8" y="10" width="1" height="1" shape-rendering="crispEdges"
    style="fill:var(--svg-fill-color);opacity:255;"></rect>
  <rect id="10-11" x="9" y="10" width="1" height="1" shape-rendering="crispEdges"
    style="fill:var(--svg-fill-color);opacity:255;">
  </rect>
  <rect id="11-11" x="10" y="10" width="1" height="1" shape-rendering="crispEdges"
    style="fill:var(--svg-fill-color);opacity:255;"></rect>
  <rect id="14-11" x="13" y="10" width="1" height="1" shape-rendering="crispEdges"
    style="fill:var(--svg-fill-color);opacity:255;"></rect>
  <rect id="3-12" x="2" y="11" width="1" height="1" shape-rendering="crispEdges"
    style="fill:var(--svg-fill-color);opacity:255;"></rect>
  <rect id="5-12" x="4" y="11" width="1" height="1" shape-rendering="crispEdges"
    style="fill:var(--svg-fill-color);opacity:255;"></rect>
  <rect id="6-12" x="5" y="11" width="1" height="1" shape-rendering="crispEdges"
    style="fill:var(--svg-fill-color);opacity:255;"></rect>
  <rect id="7-12" x="6" y="11" width="1" height="1" shape-rendering="crispEdges"
    style="fill:var(--svg-fill-color);opacity:255;"></rect>
  <rect id="8-12" x="7" y="11" width="1" height="1" shape-rendering="crispEdges"
    style="fill:var(--svg-fill-color);opacity:255;"></rect>
  <rect id="9-12" x="8" y="11" width="1" height="1" shape-rendering="crispEdges"
    style="fill:var(--svg-fill-color);opacity:255;"></rect>
  <rect id="10-12" x="9" y="11" width="1" height="1" shape-rendering="crispEdges"
    style="fill:var(--svg-fill-color);opacity:255;"></rect>
  <rect id="11-12" x="10" y="11" width="1" height="1" shape-rendering="crispEdges"
    style="fill:var(--svg-fill-color);opacity:255;">
  </rect>
  <rect id="14-12" x="13" y="11" width="1" height="1" shape-rendering="crispEdges"
    style="fill:var(--svg-fill-color);opacity:255;"></rect>
  <rect id="4-13" x="3" y="12" width="1" height="1" shape-rendering="crispEdges"
    style="fill:var(--svg-fill-color);opacity:255;"></rect>
  <rect id="6-13" x="5" y="12" width="1" height="1" shape-rendering="crispEdges"
    style="fill:var(--svg-fill-color);opacity:255;"></rect>
  <rect id="7-13" x="6" y="12" width="1" height="1" shape-rendering="crispEdges"
    style="fill:var(--svg-fill-color);opacity:255;"></rect>
  <rect id="8-13" x="7" y="12" width="1" height="1" shape-rendering="crispEdges"
    style="fill:var(--svg-fill-color);opacity:255;">
  </rect>
  <rect id="9-13" x="8" y="12" width="1" height="1" shape-rendering="crispEdges"
    style="fill:var(--svg-fill-color);opacity:255;"></rect>
  <rect id="10-13" x="9" y="12" width="1" height="1" shape-rendering="crispEdges"
    style="fill:var(--svg-fill-color);opacity:255;"></rect>
  <rect id="11-13" x="10" y="12" width="1" height="1" shape-rendering="crispEdges"
    style="fill:var(--svg-fill-color);opacity:255;"></rect>
  <rect id="13-13" x="12" y="12" width="1" height="1" shape-rendering="crispEdges"
    style="fill:var(--svg-fill-color);opacity:255;"></rect>
  <rect id="5-14" x="4" y="13" width="1" height="1" shape-rendering="crispEdges"
    style="fill:var(--svg-fill-color);opacity:255;"></rect>
  <rect id="6-14" x="5" y="13" width="1" height="1" shape-rendering="crispEdges"
    style="fill:var(--svg-fill-color);opacity:255;"></rect>
  <rect id="7-14" x="6" y="13" width="1" height="1" shape-rendering="crispEdges"
    style="fill:var(--svg-fill-color);opacity:255;"></rect>
  <rect id="8-14" x="7" y="13" width="1" height="1" shape-rendering="crispEdges"
    style="fill:var(--svg-fill-color);opacity:255;"></rect>
  <rect id="9-14" x="8" y="13" width="1" height="1" shape-rendering="crispEdges"
    style="fill:var(--svg-fill-color);opacity:255;">
  </rect>
  <rect id="10-14" x="9" y="13" width="1" height="1" shape-rendering="crispEdges"
    style="fill:var(--svg-fill-color);opacity:255;"></rect>
  <rect id="11-14" x="10" y="13" width="1" height="1" shape-rendering="crispEdges"
    style="fill:var(--svg-fill-color);opacity:255;">
  </rect>
  <rect id="12-14" x="11" y="13" width="1" height="1" shape-rendering="crispEdges"
    style="fill:var(--svg-fill-color);opacity:255;"></rect>
  <rect id="7-15" x="6" y="14" width="1" height="1" shape-rendering="crispEdges"
    style="fill:var(--svg-fill-color);opacity:255;"></rect>
  <rect id="8-15" x="7" y="14" width="1" height="1" shape-rendering="crispEdges"
    style="fill:var(--svg-fill-color);opacity:255;"></rect>
  <rect id="9-15" x="8" y="14" width="1" height="1" shape-rendering="crispEdges"
    style="fill:var(--svg-fill-color);opacity:255;"></rect>
  <rect id="10-15" x="9" y="14" width="1" height="1" shape-rendering="crispEdges"
    style="fill:var(--svg-fill-color);opacity:255;"></rect>
</svg>