<?xml version="1.0" encoding="UTF-8" standalone="no"?><svg xmlns="http://www.w3.org/2000/svg" id="hamburguer" width="16" height="16" viewBox="0 0 16 16" preserveAspectRatio="xMidYMid meet" rendering="crispEdges"><rect id="6-2" x="5" y="1" width="1" height="1" shape-rendering="crispEdges" style="fill:#020000;opacity:255;"></rect><rect id="7-2" x="6" y="1" width="1" height="1" shape-rendering="crispEdges" style="fill:#000000;opacity:255;"></rect><rect id="8-2" x="7" y="1" width="1" height="1" shape-rendering="crispEdges" style="fill:#000000;opacity:255;"></rect><rect id="9-2" x="8" y="1" width="1" height="1" shape-rendering="crispEdges" style="fill:#020000;opacity:255;"></rect><rect id="10-2" x="9" y="1" width="1" height="1" shape-rendering="crispEdges" style="fill:#000000;opacity:255;"></rect><rect id="11-2" x="10" y="1" width="1" height="1" shape-rendering="crispEdges" style="fill:#020100;opacity:255;"></rect><rect id="4-3" x="3" y="2" width="1" height="1" shape-rendering="crispEdges" style="fill:#030000;opacity:255;"></rect><rect id="5-3" x="4" y="2" width="1" height="1" shape-rendering="crispEdges" style="fill:#000000;opacity:255;"></rect><rect id="12-3" x="11" y="2" width="1" height="1" shape-rendering="crispEdges" style="fill:#020202;opacity:255;"></rect><rect id="13-3" x="12" y="2" width="1" height="1" shape-rendering="crispEdges" style="fill:#000000;opacity:255;"></rect><rect id="3-4" x="2" y="3" width="1" height="1" shape-rendering="crispEdges" style="fill:#000000;opacity:255;"></rect><rect id="7-4" x="6" y="3" width="1" height="1" shape-rendering="crispEdges" style="fill:#000201;opacity:255;"></rect><rect id="11-4" x="10" y="3" width="1" height="1" shape-rendering="crispEdges" style="fill:#000200;opacity:255;"></rect><rect id="14-4" x="13" y="3" width="1" height="1" shape-rendering="crispEdges" style="fill:#000000;opacity:255;"></rect><rect id="2-5" x="1" y="4" width="1" height="1" shape-rendering="crispEdges" style="fill:#000200;opacity:255;"></rect><rect id="5-5" x="4" y="4" width="1" height="1" shape-rendering="crispEdges" style="fill:#000000;opacity:255;"></rect><rect id="9-5" x="8" y="4" width="1" height="1" shape-rendering="crispEdges" style="fill:#000000;opacity:255;"></rect><rect id="13-5" x="12" y="4" width="1" height="1" shape-rendering="crispEdges" style="fill:#020101;opacity:255;"></rect><rect id="15-5" x="14" y="4" width="1" height="1" shape-rendering="crispEdges" style="fill:#000201;opacity:255;"></rect><rect id="2-6" x="1" y="5" width="1" height="1" shape-rendering="crispEdges" style="fill:#010000;opacity:255;"></rect><rect id="7-6" x="6" y="5" width="1" height="1" shape-rendering="crispEdges" style="fill:#030000;opacity:255;"></rect><rect id="11-6" x="10" y="5" width="1" height="1" shape-rendering="crispEdges" style="fill:#000000;opacity:255;"></rect><rect id="15-6" x="14" y="5" width="1" height="1" shape-rendering="crispEdges" style="fill:#010200;opacity:255;"></rect><rect id="2-7" x="1" y="6" width="1" height="1" shape-rendering="crispEdges" style="fill:#000000;opacity:255;"></rect><rect id="15-7" x="14" y="6" width="1" height="1" shape-rendering="crispEdges" style="fill:#000000;opacity:255;"></rect><rect id="3-8" x="2" y="7" width="1" height="1" shape-rendering="crispEdges" style="fill:#000100;opacity:255;"></rect><rect id="4-8" x="3" y="7" width="1" height="1" shape-rendering="crispEdges" style="fill:#000002;opacity:255;"></rect><rect id="5-8" x="4" y="7" width="1" height="1" shape-rendering="crispEdges" style="fill:#000000;opacity:255;"></rect><rect id="6-8" x="5" y="7" width="1" height="1" shape-rendering="crispEdges" style="fill:#020002;opacity:255;"></rect><rect id="7-8" x="6" y="7" width="1" height="1" shape-rendering="crispEdges" style="fill:#000000;opacity:255;"></rect><rect id="8-8" x="7" y="7" width="1" height="1" shape-rendering="crispEdges" style="fill:#000002;opacity:255;"></rect><rect id="9-8" x="8" y="7" width="1" height="1" shape-rendering="crispEdges" style="fill:#000000;opacity:255;"></rect><rect id="10-8" x="9" y="7" width="1" height="1" shape-rendering="crispEdges" style="fill:#030200;opacity:255;"></rect><rect id="11-8" x="10" y="7" width="1" height="1" shape-rendering="crispEdges" style="fill:#020201;opacity:255;"></rect><rect id="12-8" x="11" y="7" width="1" height="1" shape-rendering="crispEdges" style="fill:#000001;opacity:255;"></rect><rect id="13-8" x="12" y="7" width="1" height="1" shape-rendering="crispEdges" style="fill:#000000;opacity:255;"></rect><rect id="14-8" x="13" y="7" width="1" height="1" shape-rendering="crispEdges" style="fill:#020000;opacity:255;"></rect><rect id="3-9" x="2" y="8" width="1" height="1" shape-rendering="crispEdges" style="fill:#020000;opacity:255;"></rect><rect id="5-9" x="4" y="8" width="1" height="1" shape-rendering="crispEdges" style="fill:#000000;opacity:255;"></rect><rect id="12-9" x="11" y="8" width="1" height="1" shape-rendering="crispEdges" style="fill:#000200;opacity:255;"></rect><rect id="14-9" x="13" y="8" width="1" height="1" shape-rendering="crispEdges" style="fill:#000000;opacity:255;"></rect><rect id="2-10" x="1" y="9" width="1" height="1" shape-rendering="crispEdges" style="fill:#000000;opacity:255;"></rect><rect id="6-10" x="5" y="9" width="1" height="1" shape-rendering="crispEdges" style="fill:#000000;opacity:255;"></rect><rect id="7-10" x="6" y="9" width="1" height="1" shape-rendering="crispEdges" style="fill:#000200;opacity:255;"></rect><rect id="8-10" x="7" y="9" width="1" height="1" shape-rendering="crispEdges" style="fill:#000000;opacity:255;"></rect><rect id="9-10" x="8" y="9" width="1" height="1" shape-rendering="crispEdges" style="fill:#010200;opacity:255;"></rect><rect id="10-10" x="9" y="9" width="1" height="1" shape-rendering="crispEdges" style="fill:#000000;opacity:255;"></rect><rect id="11-10" x="10" y="9" width="1" height="1" shape-rendering="crispEdges" style="fill:#000000;opacity:255;"></rect><rect id="15-10" x="14" y="9" width="1" height="1" shape-rendering="crispEdges" style="fill:#000000;opacity:255;"></rect><rect id="3-11" x="2" y="10" width="1" height="1" shape-rendering="crispEdges" style="fill:#000000;opacity:255;"></rect><rect id="4-11" x="3" y="10" width="1" height="1" shape-rendering="crispEdges" style="fill:#000100;opacity:255;"></rect><rect id="5-11" x="4" y="10" width="1" height="1" shape-rendering="crispEdges" style="fill:#000001;opacity:255;"></rect><rect id="6-11" x="5" y="10" width="1" height="1" shape-rendering="crispEdges" style="fill:#000001;opacity:255;"></rect><rect id="7-11" x="6" y="10" width="1" height="1" shape-rendering="crispEdges" style="fill:#000100;opacity:255;"></rect><rect id="8-11" x="7" y="10" width="1" height="1" shape-rendering="crispEdges" style="fill:#010000;opacity:255;"></rect><rect id="9-11" x="8" y="10" width="1" height="1" shape-rendering="crispEdges" style="fill:#010002;opacity:255;"></rect><rect id="10-11" x="9" y="10" width="1" height="1" shape-rendering="crispEdges" style="fill:#000002;opacity:255;"></rect><rect id="11-11" x="10" y="10" width="1" height="1" shape-rendering="crispEdges" style="fill:#000000;opacity:255;"></rect><rect id="12-11" x="11" y="10" width="1" height="1" shape-rendering="crispEdges" style="fill:#000000;opacity:255;"></rect><rect id="13-11" x="12" y="10" width="1" height="1" shape-rendering="crispEdges" style="fill:#000000;opacity:255;"></rect><rect id="14-11" x="13" y="10" width="1" height="1" shape-rendering="crispEdges" style="fill:#000200;opacity:255;"></rect><rect id="3-12" x="2" y="11" width="1" height="1" shape-rendering="crispEdges" style="fill:#000000;opacity:255;"></rect><rect id="4-12" x="3" y="11" width="1" height="1" shape-rendering="crispEdges" style="fill:#000200;opacity:255;"></rect><rect id="5-12" x="4" y="11" width="1" height="1" shape-rendering="crispEdges" style="fill:#000000;opacity:255;"></rect><rect id="6-12" x="5" y="11" width="1" height="1" shape-rendering="crispEdges" style="fill:#000100;opacity:255;"></rect><rect id="7-12" x="6" y="11" width="1" height="1" shape-rendering="crispEdges" style="fill:#000001;opacity:255;"></rect><rect id="8-12" x="7" y="11" width="1" height="1" shape-rendering="crispEdges" style="fill:#000001;opacity:255;"></rect><rect id="9-12" x="8" y="11" width="1" height="1" shape-rendering="crispEdges" style="fill:#000002;opacity:255;"></rect><rect id="10-12" x="9" y="11" width="1" height="1" shape-rendering="crispEdges" style="fill:#000002;opacity:255;"></rect><rect id="11-12" x="10" y="11" width="1" height="1" shape-rendering="crispEdges" style="fill:#010000;opacity:255;"></rect><rect id="12-12" x="11" y="11" width="1" height="1" shape-rendering="crispEdges" style="fill:#000000;opacity:255;"></rect><rect id="13-12" x="12" y="11" width="1" height="1" shape-rendering="crispEdges" style="fill:#000300;opacity:255;"></rect><rect id="14-12" x="13" y="11" width="1" height="1" shape-rendering="crispEdges" style="fill:#020000;opacity:255;"></rect><rect id="2-13" x="1" y="12" width="1" height="1" shape-rendering="crispEdges" style="fill:#000000;opacity:255;"></rect><rect id="3-13" x="2" y="12" width="1" height="1" shape-rendering="crispEdges" style="fill:#000000;opacity:255;"></rect><rect id="4-13" x="3" y="12" width="1" height="1" shape-rendering="crispEdges" style="fill:#000000;opacity:255;"></rect><rect id="5-13" x="4" y="12" width="1" height="1" shape-rendering="crispEdges" style="fill:#000201;opacity:255;"></rect><rect id="9-13" x="8" y="12" width="1" height="1" shape-rendering="crispEdges" style="fill:#000000;opacity:255;"></rect><rect id="12-13" x="11" y="12" width="1" height="1" shape-rendering="crispEdges" style="fill:#000000;opacity:255;"></rect><rect id="13-13" x="12" y="12" width="1" height="1" shape-rendering="crispEdges" style="fill:#000001;opacity:255;"></rect><rect id="15-13" x="14" y="12" width="1" height="1" shape-rendering="crispEdges" style="fill:#000000;opacity:255;"></rect><rect id="2-14" x="1" y="13" width="1" height="1" shape-rendering="crispEdges" style="fill:#000000;opacity:255;"></rect><rect id="6-14" x="5" y="13" width="1" height="1" shape-rendering="crispEdges" style="fill:#000000;opacity:255;"></rect><rect id="7-14" x="6" y="13" width="1" height="1" shape-rendering="crispEdges" style="fill:#000000;opacity:255;"></rect><rect id="8-14" x="7" y="13" width="1" height="1" shape-rendering="crispEdges" style="fill:#000200;opacity:255;"></rect><rect id="10-14" x="9" y="13" width="1" height="1" shape-rendering="crispEdges" style="fill:#000000;opacity:255;"></rect><rect id="11-14" x="10" y="13" width="1" height="1" shape-rendering="crispEdges" style="fill:#010000;opacity:255;"></rect><rect id="15-14" x="14" y="13" width="1" height="1" shape-rendering="crispEdges" style="fill:#010000;opacity:255;"></rect><rect id="3-15" x="2" y="14" width="1" height="1" shape-rendering="crispEdges" style="fill:#000000;opacity:255;"></rect><rect id="4-15" x="3" y="14" width="1" height="1" shape-rendering="crispEdges" style="fill:#020100;opacity:255;"></rect><rect id="5-15" x="4" y="14" width="1" height="1" shape-rendering="crispEdges" style="fill:#000000;opacity:255;"></rect><rect id="12-15" x="11" y="14" width="1" height="1" shape-rendering="crispEdges" style="fill:#010002;opacity:255;"></rect><rect id="13-15" x="12" y="14" width="1" height="1" shape-rendering="crispEdges" style="fill:#010300;opacity:255;"></rect><rect id="14-15" x="13" y="14" width="1" height="1" shape-rendering="crispEdges" style="fill:#000000;opacity:255;"></rect><rect id="6-16" x="5" y="15" width="1" height="1" shape-rendering="crispEdges" style="fill:#000000;opacity:255;"></rect><rect id="7-16" x="6" y="15" width="1" height="1" shape-rendering="crispEdges" style="fill:#000000;opacity:255;"></rect><rect id="8-16" x="7" y="15" width="1" height="1" shape-rendering="crispEdges" style="fill:#000001;opacity:255;"></rect><rect id="9-16" x="8" y="15" width="1" height="1" shape-rendering="crispEdges" style="fill:#000102;opacity:255;"></rect><rect id="10-16" x="9" y="15" width="1" height="1" shape-rendering="crispEdges" style="fill:#010000;opacity:255;"></rect><rect id="11-16" x="10" y="15" width="1" height="1" shape-rendering="crispEdges" style="fill:#000002;opacity:255;"></rect></svg>