<?xml version="1.0" encoding="UTF-8" standalone="no"?>
<svg xmlns="http://www.w3.org/2000/svg" id="lights-on" width="16"
  height="16" viewBox="0 0 16 16" preserveAspectRatio="xMidYMid meet" rendering="crispEdges">
  <g>
    <rect id="4-2" x="3" y="1" width="1" height="1" shape-rendering="crispEdges"
      style="fill:var(--svg-fill-color);opacity:255;"></rect>
    <rect id="13-2" x="12" y="1" width="1" height="1" shape-rendering="crispEdges"
      style="fill:var(--svg-fill-color);opacity:255;"></rect>
    <rect id="7-3" x="6" y="2" width="1" height="1" shape-rendering="crispEdges"
      style="fill:var(--svg-fill-color);opacity:255;"></rect>
    <rect id="8-3" x="7" y="2" width="1" height="1" shape-rendering="crispEdges"
      style="fill:var(--svg-fill-color);opacity:255;"></rect>
    <rect id="9-3" x="8" y="2" width="1" height="1" shape-rendering="crispEdges"
      style="fill:var(--svg-fill-color);opacity:255;"></rect>
    <rect id="10-3" x="9" y="2" width="1" height="1" shape-rendering="crispEdges"
      style="fill:var(--svg-fill-color);opacity:255;"></rect>
    <rect id="6-4" x="5" y="3" width="1" height="1" shape-rendering="crispEdges"
      style="fill:var(--svg-fill-color);opacity:255;"></rect>
    <rect id="11-4" x="10" y="3" width="1" height="1" shape-rendering="crispEdges"
      style="fill:var(--svg-fill-color);opacity:255;"></rect>
    <rect id="5-5" x="4" y="4" width="1" height="1" shape-rendering="crispEdges"
      style="fill:var(--svg-fill-color);opacity:255;"></rect>
    <rect id="12-5" x="11" y="4" width="1" height="1" shape-rendering="crispEdges"
      style="fill:var(--svg-fill-color);opacity:255;"></rect>
    <rect id="2-6" x="1" y="5" width="1" height="1" shape-rendering="crispEdges"
      style="fill:var(--svg-fill-color);opacity:255;"></rect>
    <rect id="5-6" x="4" y="5" width="1" height="1" shape-rendering="crispEdges"
      style="fill:var(--svg-fill-color);opacity:255;"></rect>
    <rect id="12-6" x="11" y="5" width="1" height="1" shape-rendering="crispEdges"
      style="fill:var(--svg-fill-color);opacity:255;"></rect>
    <rect id="15-6" x="14" y="5" width="1" height="1" shape-rendering="crispEdges"
      style="fill:var(--svg-fill-color);opacity:255;"></rect>
    <rect id="5-7" x="4" y="6" width="1" height="1" shape-rendering="crispEdges"
      style="fill:var(--svg-fill-color);opacity:255;"></rect>
    <rect id="12-7" x="11" y="6" width="1" height="1" shape-rendering="crispEdges"
      style="fill:var(--svg-fill-color);opacity:255;"></rect>
    <rect id="5-8" x="4" y="7" width="1" height="1" shape-rendering="crispEdges"
      style="fill:var(--svg-fill-color);opacity:255;"></rect>
    <rect id="12-8" x="11" y="7" width="1" height="1" shape-rendering="crispEdges"
      style="fill:var(--svg-fill-color);opacity:255;"></rect>
    <rect id="6-9" x="5" y="8" width="1" height="1" shape-rendering="crispEdges"
      style="fill:var(--svg-fill-color);opacity:255;"></rect>
    <rect id="11-9" x="10" y="8" width="1" height="1" shape-rendering="crispEdges"
      style="fill:var(--svg-fill-color);opacity:255;"></rect>
    <rect id="7-10" x="6" y="9" width="1" height="1" shape-rendering="crispEdges"
      style="fill:var(--svg-fill-color);opacity:255;"></rect>
    <rect id="8-10" x="7" y="9" width="1" height="1" shape-rendering="crispEdges"
      style="fill:var(--svg-fill-color);opacity:255;"></rect>
    <rect id="9-10" x="8" y="9" width="1" height="1" shape-rendering="crispEdges"
      style="fill:var(--svg-fill-color);opacity:255;"></rect>
    <rect id="10-10" x="9" y="9" width="1" height="1" shape-rendering="crispEdges"
      style="fill:var(--svg-fill-color);opacity:255;"></rect>
    <rect id="3-11" x="2" y="10" width="1" height="1" shape-rendering="crispEdges"
      style="fill:var(--svg-fill-color);opacity:255;"></rect>
    <rect id="7-11" x="6" y="10" width="1" height="1" shape-rendering="crispEdges"
      style="fill:var(--svg-fill-color);opacity:255;"></rect>
    <rect id="10-11" x="9" y="10" width="1" height="1" shape-rendering="crispEdges"
      style="fill:var(--svg-fill-color);opacity:255;"></rect>
    <rect id="14-11" x="13" y="10" width="1" height="1" shape-rendering="crispEdges"
      style="fill:var(--svg-fill-color);opacity:255;"></rect>
    <rect id="7-12" x="6" y="11" width="1" height="1" shape-rendering="crispEdges"
      style="fill:var(--svg-fill-color);opacity:255;"></rect>
    <rect id="8-12" x="7" y="11" width="1" height="1" shape-rendering="crispEdges"
      style="fill:var(--svg-fill-color);opacity:255;"></rect>
    <rect id="9-12" x="8" y="11" width="1" height="1" shape-rendering="crispEdges"
      style="fill:var(--svg-fill-color);opacity:255;"></rect>
    <rect id="10-12" x="9" y="11" width="1" height="1" shape-rendering="crispEdges"
      style="fill:var(--svg-fill-color);opacity:255;"></rect>
    <rect id="7-13" x="6" y="12" width="1" height="1" shape-rendering="crispEdges"
      style="fill:var(--svg-fill-color);opacity:255;"></rect>
    <rect id="10-13" x="9" y="12" width="1" height="1" shape-rendering="crispEdges"
      style="fill:var(--svg-fill-color);opacity:255;"></rect>
    <rect id="8-14" x="7" y="13" width="1" height="1" shape-rendering="crispEdges"
      style="fill:var(--svg-fill-color);opacity:255;"></rect>
    <rect id="9-14" x="8" y="13" width="1" height="1" shape-rendering="crispEdges"
      style="fill:var(--svg-fill-color);opacity:255;"></rect>
  </g>
</svg>