<?xml version="1.0" encoding="UTF-8" standalone="no"?>
<svg xmlns="http://www.w3.org/2000/svg" id="moon" width="16"
  height="16" viewBox="0 0 16 16" preserveAspectRatio="xMidYMid meet" rendering="crispEdges">
  <g>
    <rect id="8-3" x="7" y="2" width="1" height="1" shape-rendering="crispEdges"
      style="fill:var(--svg-fill-color);opacity:255;"></rect>
    <rect id="9-3" x="8" y="2" width="1" height="1" shape-rendering="crispEdges"
      style="fill:var(--svg-fill-color);opacity:255;"></rect>
    <rect id="10-3" x="9" y="2" width="1" height="1" shape-rendering="crispEdges"
      style="fill:var(--svg-fill-color);opacity:255;"></rect>
    <rect id="11-3" x="10" y="2" width="1" height="1" shape-rendering="crispEdges"
      style="fill:var(--svg-fill-color);opacity:255;"></rect>
    <rect id="6-4" x="5" y="3" width="1" height="1" shape-rendering="crispEdges"
      style="fill:var(--svg-fill-color);opacity:255;"></rect>
    <rect id="7-4" x="6" y="3" width="1" height="1" shape-rendering="crispEdges"
      style="fill:var(--svg-fill-color);opacity:255;"></rect>
    <rect id="12-4" x="11" y="3" width="1" height="1" shape-rendering="crispEdges"
      style="fill:var(--svg-fill-color);opacity:255;"></rect>
    <rect id="5-5" x="4" y="4" width="1" height="1" shape-rendering="crispEdges"
      style="fill:var(--svg-fill-color);opacity:255;"></rect>
    <rect id="11-5" x="10" y="4" width="1" height="1" shape-rendering="crispEdges"
      style="fill:var(--svg-fill-color);opacity:255;"></rect>
    <rect id="5-6" x="4" y="5" width="1" height="1" shape-rendering="crispEdges"
      style="fill:var(--svg-fill-color);opacity:255;"></rect>
    <rect id="10-6" x="9" y="5" width="1" height="1" shape-rendering="crispEdges"
      style="fill:var(--svg-fill-color);opacity:255;"></rect>
    <rect id="4-7" x="3" y="6" width="1" height="1" shape-rendering="crispEdges"
      style="fill:var(--svg-fill-color);opacity:255;"></rect>
    <rect id="9-7" x="8" y="6" width="1" height="1" shape-rendering="crispEdges"
      style="fill:var(--svg-fill-color);opacity:255;"></rect>
    <rect id="4-8" x="3" y="7" width="1" height="1" shape-rendering="crispEdges"
      style="fill:var(--svg-fill-color);opacity:255;"></rect>
    <rect id="9-8" x="8" y="7" width="1" height="1" shape-rendering="crispEdges"
      style="fill:var(--svg-fill-color);opacity:255;"></rect>
    <rect id="4-9" x="3" y="8" width="1" height="1" shape-rendering="crispEdges"
      style="fill:var(--svg-fill-color);opacity:255;"></rect>
    <rect id="9-9" x="8" y="8" width="1" height="1" shape-rendering="crispEdges"
      style="fill:var(--svg-fill-color);opacity:255;"></rect>
    <rect id="4-10" x="3" y="9" width="1" height="1" shape-rendering="crispEdges"
      style="fill:var(--svg-fill-color);opacity:255;"></rect>
    <rect id="10-10" x="9" y="9" width="1" height="1" shape-rendering="crispEdges"
      style="fill:var(--svg-fill-color);opacity:255;"></rect>
    <rect id="5-11" x="4" y="10" width="1" height="1" shape-rendering="crispEdges"
      style="fill:var(--svg-fill-color);opacity:255;"></rect>
    <rect id="11-11" x="10" y="10" width="1" height="1" shape-rendering="crispEdges"
      style="fill:var(--svg-fill-color);opacity:255;"></rect>
    <rect id="12-11" x="11" y="10" width="1" height="1" shape-rendering="crispEdges"
      style="fill:var(--svg-fill-color);opacity:255;"></rect>
    <rect id="13-11" x="12" y="10" width="1" height="1" shape-rendering="crispEdges"
      style="fill:var(--svg-fill-color);opacity:255;"></rect>
    <rect id="14-11" x="13" y="10" width="1" height="1" shape-rendering="crispEdges"
      style="fill:var(--svg-fill-color);opacity:255;"></rect>
    <rect id="5-12" x="4" y="11" width="1" height="1" shape-rendering="crispEdges"
      style="fill:var(--svg-fill-color);opacity:255;"></rect>
    <rect id="14-12" x="13" y="11" width="1" height="1" shape-rendering="crispEdges"
      style="fill:var(--svg-fill-color);opacity:255;"></rect>
    <rect id="6-13" x="5" y="12" width="1" height="1" shape-rendering="crispEdges"
      style="fill:var(--svg-fill-color);opacity:255;"></rect>
    <rect id="7-13" x="6" y="12" width="1" height="1" shape-rendering="crispEdges"
      style="fill:var(--svg-fill-color);opacity:255;"></rect>
    <rect id="12-13" x="11" y="12" width="1" height="1" shape-rendering="crispEdges"
      style="fill:var(--svg-fill-color);opacity:255;"></rect>
    <rect id="13-13" x="12" y="12" width="1" height="1" shape-rendering="crispEdges"
      style="fill:var(--svg-fill-color);opacity:255;"></rect>
    <rect id="8-14" x="7" y="13" width="1" height="1" shape-rendering="crispEdges"
      style="fill:var(--svg-fill-color);opacity:255;"></rect>
    <rect id="9-14" x="8" y="13" width="1" height="1" shape-rendering="crispEdges"
      style="fill:var(--svg-fill-color);opacity:255;"></rect>
    <rect id="10-14" x="9" y="13" width="1" height="1" shape-rendering="crispEdges"
      style="fill:var(--svg-fill-color);opacity:255;"></rect>
    <rect id="11-14" x="10" y="13" width="1" height="1" shape-rendering="crispEdges"
      style="fill:var(--svg-fill-color);opacity:255;"></rect>
  </g>
</svg>