<?xml version="1.0" encoding="UTF-8" standalone="no"?>
<svg xmlns="http://www.w3.org/2000/svg" id="off" width="16"
  height="16" viewBox="0 0 16 16" preserveAspectRatio="xMidYMid meet" rendering="crispEdges">
  <g>
    <rect id="8-3" x="7" y="2" width="1" height="1" shape-rendering="crispEdges"
      style="fill:var(--svg-fill-color);opacity:255;"></rect>
    <rect id="9-3" x="8" y="2" width="1" height="1" shape-rendering="crispEdges"
      style="fill:var(--svg-fill-color);opacity:255;"></rect>
    <rect id="5-4" x="4" y="3" width="1" height="1" shape-rendering="crispEdges"
      style="fill:var(--svg-fill-color);opacity:255;"></rect>
    <rect id="6-4" x="5" y="3" width="1" height="1" shape-rendering="crispEdges"
      style="fill:var(--svg-fill-color);opacity:255;"></rect>
    <rect id="8-4" x="7" y="3" width="1" height="1" shape-rendering="crispEdges"
      style="fill:var(--svg-fill-color);opacity:255;"></rect>
    <rect id="9-4" x="8" y="3" width="1" height="1" shape-rendering="crispEdges"
      style="fill:var(--svg-fill-color);opacity:255;"></rect>
    <rect id="11-4" x="10" y="3" width="1" height="1" shape-rendering="crispEdges"
      style="fill:var(--svg-fill-color);opacity:255;"></rect>
    <rect id="12-4" x="11" y="3" width="1" height="1" shape-rendering="crispEdges"
      style="fill:var(--svg-fill-color);opacity:255;"></rect>
    <rect id="4-5" x="3" y="4" width="1" height="1" shape-rendering="crispEdges"
      style="fill:var(--svg-fill-color);opacity:255;"></rect>
    <rect id="5-5" x="4" y="4" width="1" height="1" shape-rendering="crispEdges"
      style="fill:var(--svg-fill-color);opacity:255;"></rect>
    <rect id="6-5" x="5" y="4" width="1" height="1" shape-rendering="crispEdges"
      style="fill:var(--svg-fill-color);opacity:255;"></rect>
    <rect id="8-5" x="7" y="4" width="1" height="1" shape-rendering="crispEdges"
      style="fill:var(--svg-fill-color);opacity:255;"></rect>
    <rect id="9-5" x="8" y="4" width="1" height="1" shape-rendering="crispEdges"
      style="fill:var(--svg-fill-color);opacity:255;"></rect>
    <rect id="11-5" x="10" y="4" width="1" height="1" shape-rendering="crispEdges"
      style="fill:var(--svg-fill-color);opacity:255;"></rect>
    <rect id="12-5" x="11" y="4" width="1" height="1" shape-rendering="crispEdges"
      style="fill:var(--svg-fill-color);opacity:255;"></rect>
    <rect id="13-5" x="12" y="4" width="1" height="1" shape-rendering="crispEdges"
      style="fill:var(--svg-fill-color);opacity:255;"></rect>
    <rect id="4-6" x="3" y="5" width="1" height="1" shape-rendering="crispEdges"
      style="fill:var(--svg-fill-color);opacity:255;"></rect>
    <rect id="5-6" x="4" y="5" width="1" height="1" shape-rendering="crispEdges"
      style="fill:var(--svg-fill-color);opacity:255;"></rect>
    <rect id="6-6" x="5" y="5" width="1" height="1" shape-rendering="crispEdges"
      style="fill:var(--svg-fill-color);opacity:255;"></rect>
    <rect id="8-6" x="7" y="5" width="1" height="1" shape-rendering="crispEdges"
      style="fill:var(--svg-fill-color);opacity:255;"></rect>
    <rect id="9-6" x="8" y="5" width="1" height="1" shape-rendering="crispEdges"
      style="fill:var(--svg-fill-color);opacity:255;"></rect>
    <rect id="11-6" x="10" y="5" width="1" height="1" shape-rendering="crispEdges"
      style="fill:var(--svg-fill-color);opacity:255;"></rect>
    <rect id="12-6" x="11" y="5" width="1" height="1" shape-rendering="crispEdges"
      style="fill:var(--svg-fill-color);opacity:255;"></rect>
    <rect id="13-6" x="12" y="5" width="1" height="1" shape-rendering="crispEdges"
      style="fill:var(--svg-fill-color);opacity:255;"></rect>
    <rect id="3-7" x="2" y="6" width="1" height="1" shape-rendering="crispEdges"
      style="fill:var(--svg-fill-color);opacity:255;"></rect>
    <rect id="4-7" x="3" y="6" width="1" height="1" shape-rendering="crispEdges"
      style="fill:var(--svg-fill-color);opacity:255;"></rect>
    <rect id="5-7" x="4" y="6" width="1" height="1" shape-rendering="crispEdges"
      style="fill:var(--svg-fill-color);opacity:255;"></rect>
    <rect id="8-7" x="7" y="6" width="1" height="1" shape-rendering="crispEdges"
      style="fill:var(--svg-fill-color);opacity:255;"></rect>
    <rect id="9-7" x="8" y="6" width="1" height="1" shape-rendering="crispEdges"
      style="fill:var(--svg-fill-color);opacity:255;"></rect>
    <rect id="12-7" x="11" y="6" width="1" height="1" shape-rendering="crispEdges"
      style="fill:var(--svg-fill-color);opacity:255;"></rect>
    <rect id="13-7" x="12" y="6" width="1" height="1" shape-rendering="crispEdges"
      style="fill:var(--svg-fill-color);opacity:255;"></rect>
    <rect id="14-7" x="13" y="6" width="1" height="1" shape-rendering="crispEdges"
      style="fill:var(--svg-fill-color);opacity:255;"></rect>
    <rect id="3-8" x="2" y="7" width="1" height="1" shape-rendering="crispEdges"
      style="fill:var(--svg-fill-color);opacity:255;"></rect>
    <rect id="4-8" x="3" y="7" width="1" height="1" shape-rendering="crispEdges"
      style="fill:var(--svg-fill-color);opacity:255;"></rect>
    <rect id="5-8" x="4" y="7" width="1" height="1" shape-rendering="crispEdges"
      style="fill:var(--svg-fill-color);opacity:255;"></rect>
    <rect id="8-8" x="7" y="7" width="1" height="1" shape-rendering="crispEdges"
      style="fill:var(--svg-fill-color);opacity:255;"></rect>
    <rect id="9-8" x="8" y="7" width="1" height="1" shape-rendering="crispEdges"
      style="fill:var(--svg-fill-color);opacity:255;"></rect>
    <rect id="12-8" x="11" y="7" width="1" height="1" shape-rendering="crispEdges"
      style="fill:var(--svg-fill-color);opacity:255;"></rect>
    <rect id="13-8" x="12" y="7" width="1" height="1" shape-rendering="crispEdges"
      style="fill:var(--svg-fill-color);opacity:255;"></rect>
    <rect id="14-8" x="13" y="7" width="1" height="1" shape-rendering="crispEdges"
      style="fill:var(--svg-fill-color);opacity:255;"></rect>
    <rect id="3-9" x="2" y="8" width="1" height="1" shape-rendering="crispEdges"
      style="fill:var(--svg-fill-color);opacity:255;"></rect>
    <rect id="4-9" x="3" y="8" width="1" height="1" shape-rendering="crispEdges"
      style="fill:var(--svg-fill-color);opacity:255;"></rect>
    <rect id="5-9" x="4" y="8" width="1" height="1" shape-rendering="crispEdges"
      style="fill:var(--svg-fill-color);opacity:255;"></rect>
    <rect id="12-9" x="11" y="8" width="1" height="1" shape-rendering="crispEdges"
      style="fill:var(--svg-fill-color);opacity:255;"></rect>
    <rect id="13-9" x="12" y="8" width="1" height="1" shape-rendering="crispEdges"
      style="fill:var(--svg-fill-color);opacity:255;"></rect>
    <rect id="14-9" x="13" y="8" width="1" height="1" shape-rendering="crispEdges"
      style="fill:var(--svg-fill-color);opacity:255;"></rect>
    <rect id="3-10" x="2" y="9" width="1" height="1" shape-rendering="crispEdges"
      style="fill:var(--svg-fill-color);opacity:255;"></rect>
    <rect id="4-10" x="3" y="9" width="1" height="1" shape-rendering="crispEdges"
      style="fill:var(--svg-fill-color);opacity:255;"></rect>
    <rect id="5-10" x="4" y="9" width="1" height="1" shape-rendering="crispEdges"
      style="fill:var(--svg-fill-color);opacity:255;"></rect>
    <rect id="12-10" x="11" y="9" width="1" height="1" shape-rendering="crispEdges"
      style="fill:var(--svg-fill-color);opacity:255;"></rect>
    <rect id="13-10" x="12" y="9" width="1" height="1" shape-rendering="crispEdges"
      style="fill:var(--svg-fill-color);opacity:255;"></rect>
    <rect id="14-10" x="13" y="9" width="1" height="1" shape-rendering="crispEdges"
      style="fill:var(--svg-fill-color);opacity:255;"></rect>
    <rect id="4-11" x="3" y="10" width="1" height="1" shape-rendering="crispEdges"
      style="fill:var(--svg-fill-color);opacity:255;"></rect>
    <rect id="5-11" x="4" y="10" width="1" height="1" shape-rendering="crispEdges"
      style="fill:var(--svg-fill-color);opacity:255;"></rect>
    <rect id="6-11" x="5" y="10" width="1" height="1" shape-rendering="crispEdges"
      style="fill:var(--svg-fill-color);opacity:255;"></rect>
    <rect id="11-11" x="10" y="10" width="1" height="1" shape-rendering="crispEdges"
      style="fill:var(--svg-fill-color);opacity:255;"></rect>
    <rect id="12-11" x="11" y="10" width="1" height="1" shape-rendering="crispEdges"
      style="fill:var(--svg-fill-color);opacity:255;"></rect>
    <rect id="13-11" x="12" y="10" width="1" height="1" shape-rendering="crispEdges"
      style="fill:var(--svg-fill-color);opacity:255;"></rect>
    <rect id="4-12" x="3" y="11" width="1" height="1" shape-rendering="crispEdges"
      style="fill:var(--svg-fill-color);opacity:255;"></rect>
    <rect id="5-12" x="4" y="11" width="1" height="1" shape-rendering="crispEdges"
      style="fill:var(--svg-fill-color);opacity:255;"></rect>
    <rect id="6-12" x="5" y="11" width="1" height="1" shape-rendering="crispEdges"
      style="fill:var(--svg-fill-color);opacity:255;"></rect>
    <rect id="7-12" x="6" y="11" width="1" height="1" shape-rendering="crispEdges"
      style="fill:var(--svg-fill-color);opacity:255;"></rect>
    <rect id="8-12" x="7" y="11" width="1" height="1" shape-rendering="crispEdges"
      style="fill:var(--svg-fill-color);opacity:255;"></rect>
    <rect id="9-12" x="8" y="11" width="1" height="1" shape-rendering="crispEdges"
      style="fill:var(--svg-fill-color);opacity:255;"></rect>
    <rect id="10-12" x="9" y="11" width="1" height="1" shape-rendering="crispEdges"
      style="fill:var(--svg-fill-color);opacity:255;"></rect>
    <rect id="11-12" x="10" y="11" width="1" height="1" shape-rendering="crispEdges"
      style="fill:var(--svg-fill-color);opacity:255;"></rect>
    <rect id="12-12" x="11" y="11" width="1" height="1" shape-rendering="crispEdges"
      style="fill:var(--svg-fill-color);opacity:255;"></rect>
    <rect id="13-12" x="12" y="11" width="1" height="1" shape-rendering="crispEdges"
      style="fill:var(--svg-fill-color);opacity:255;"></rect>
    <rect id="5-13" x="4" y="12" width="1" height="1" shape-rendering="crispEdges"
      style="fill:var(--svg-fill-color);opacity:255;"></rect>
    <rect id="6-13" x="5" y="12" width="1" height="1" shape-rendering="crispEdges"
      style="fill:var(--svg-fill-color);opacity:255;"></rect>
    <rect id="7-13" x="6" y="12" width="1" height="1" shape-rendering="crispEdges"
      style="fill:var(--svg-fill-color);opacity:255;"></rect>
    <rect id="8-13" x="7" y="12" width="1" height="1" shape-rendering="crispEdges"
      style="fill:var(--svg-fill-color);opacity:255;"></rect>
    <rect id="9-13" x="8" y="12" width="1" height="1" shape-rendering="crispEdges"
      style="fill:var(--svg-fill-color);opacity:255;"></rect>
    <rect id="10-13" x="9" y="12" width="1" height="1" shape-rendering="crispEdges"
      style="fill:var(--svg-fill-color);opacity:255;"></rect>
    <rect id="11-13" x="10" y="12" width="1" height="1" shape-rendering="crispEdges"
      style="fill:var(--svg-fill-color);opacity:255;"></rect>
    <rect id="12-13" x="11" y="12" width="1" height="1" shape-rendering="crispEdges"
      style="fill:var(--svg-fill-color);opacity:255;"></rect>
    <rect id="7-14" x="6" y="13" width="1" height="1" shape-rendering="crispEdges"
      style="fill:var(--svg-fill-color);opacity:255;"></rect>
    <rect id="8-14" x="7" y="13" width="1" height="1" shape-rendering="crispEdges"
      style="fill:var(--svg-fill-color);opacity:255;"></rect>
    <rect id="9-14" x="8" y="13" width="1" height="1" shape-rendering="crispEdges"
      style="fill:var(--svg-fill-color);opacity:255;"></rect>
    <rect id="10-14" x="9" y="13" width="1" height="1" shape-rendering="crispEdges"
      style="fill:var(--svg-fill-color);opacity:255;"></rect>
  </g>
</svg>