<?xml version="1.0" encoding="UTF-8" standalone="no"?>
<svg xmlns="http://www.w3.org/2000/svg" id="pointer" width="8"
  height="8" viewBox="0 0 8 8" preserveAspectRatio="xMidYMid meet" rendering="crispEdges">
  <g>
    <rect id="1-2" x="0" y="1" width="1" height="1" shape-rendering="crispEdges"
      style="fill:var(--svg-fill-color);opacity:255;"></rect>
    <rect id="2-2" x="1" y="1" width="1" height="1" shape-rendering="crispEdges"
      style="fill:var(--svg-fill-color);opacity:255;"></rect>
    <rect id="3-2" x="2" y="1" width="1" height="1" shape-rendering="crispEdges"
      style="fill:var(--svg-fill-color);opacity:255;"></rect>
    <rect id="4-2" x="3" y="1" width="1" height="1" shape-rendering="crispEdges"
      style="fill:var(--svg-fill-color);opacity:255;"></rect>
    <rect id="5-2" x="4" y="1" width="1" height="1" shape-rendering="crispEdges"
      style="fill:var(--svg-fill-color);opacity:255;"></rect>
    <rect id="6-2" x="5" y="1" width="1" height="1" shape-rendering="crispEdges"
      style="fill:var(--svg-fill-color);opacity:255;"></rect>
    <rect id="7-2" x="6" y="1" width="1" height="1" shape-rendering="crispEdges"
      style="fill:var(--svg-fill-color);opacity:255;"></rect>
    <rect id="8-2" x="7" y="1" width="1" height="1" shape-rendering="crispEdges"
      style="fill:var(--svg-fill-color);opacity:255;"></rect>
    <rect id="1-3" x="0" y="2" width="1" height="1" shape-rendering="crispEdges"
      style="fill:var(--svg-fill-color);opacity:255;"></rect>
    <rect id="2-3" x="1" y="2" width="1" height="1" shape-rendering="crispEdges"
      style="fill:var(--svg-fill-color);opacity:255;"></rect>
    <rect id="3-3" x="2" y="2" width="1" height="1" shape-rendering="crispEdges"
      style="fill:var(--svg-fill-color);opacity:255;"></rect>
    <rect id="4-3" x="3" y="2" width="1" height="1" shape-rendering="crispEdges"
      style="fill:var(--svg-fill-color);opacity:255;"></rect>
    <rect id="5-3" x="4" y="2" width="1" height="1" shape-rendering="crispEdges"
      style="fill:var(--svg-fill-color);opacity:255;"></rect>
    <rect id="6-3" x="5" y="2" width="1" height="1" shape-rendering="crispEdges"
      style="fill:var(--svg-fill-color);opacity:255;"></rect>
    <rect id="7-3" x="6" y="2" width="1" height="1" shape-rendering="crispEdges"
      style="fill:var(--svg-fill-color);opacity:255;"></rect>
    <rect id="8-3" x="7" y="2" width="1" height="1" shape-rendering="crispEdges"
      style="fill:var(--svg-fill-color);opacity:255;"></rect>
    <rect id="1-4" x="0" y="3" width="1" height="1" shape-rendering="crispEdges"
      style="fill:var(--svg-fill-color);opacity:255;"></rect>
    <rect id="2-4" x="1" y="3" width="1" height="1" shape-rendering="crispEdges"
      style="fill:var(--svg-fill-color);opacity:255;"></rect>
    <rect id="3-4" x="2" y="3" width="1" height="1" shape-rendering="crispEdges"
      style="fill:var(--svg-fill-color);opacity:255;"></rect>
    <rect id="4-4" x="3" y="3" width="1" height="1" shape-rendering="crispEdges"
      style="fill:var(--svg-fill-color);opacity:255;"></rect>
    <rect id="5-4" x="4" y="3" width="1" height="1" shape-rendering="crispEdges"
      style="fill:var(--svg-fill-color);opacity:255;"></rect>
    <rect id="6-4" x="5" y="3" width="1" height="1" shape-rendering="crispEdges"
      style="fill:var(--svg-fill-color);opacity:255;"></rect>
    <rect id="7-4" x="6" y="3" width="1" height="1" shape-rendering="crispEdges"
      style="fill:var(--svg-fill-color);opacity:255;"></rect>
    <rect id="8-4" x="7" y="3" width="1" height="1" shape-rendering="crispEdges"
      style="fill:var(--svg-fill-color);opacity:255;"></rect>
    <rect id="1-5" x="0" y="4" width="1" height="1" shape-rendering="crispEdges"
      style="fill:var(--svg-fill-color);opacity:255;"></rect>
    <rect id="2-5" x="1" y="4" width="1" height="1" shape-rendering="crispEdges"
      style="fill:var(--svg-fill-color);opacity:255;"></rect>
    <rect id="3-5" x="2" y="4" width="1" height="1" shape-rendering="crispEdges"
      style="fill:var(--svg-fill-color);opacity:255;"></rect>
    <rect id="4-5" x="3" y="4" width="1" height="1" shape-rendering="crispEdges"
      style="fill:var(--svg-fill-color);opacity:255;"></rect>
    <rect id="5-5" x="4" y="4" width="1" height="1" shape-rendering="crispEdges"
      style="fill:var(--svg-fill-color);opacity:255;"></rect>
    <rect id="6-5" x="5" y="4" width="1" height="1" shape-rendering="crispEdges"
      style="fill:var(--svg-fill-color);opacity:255;"></rect>
    <rect id="7-5" x="6" y="4" width="1" height="1" shape-rendering="crispEdges"
      style="fill:var(--svg-fill-color);opacity:255;"></rect>
    <rect id="8-5" x="7" y="4" width="1" height="1" shape-rendering="crispEdges"
      style="fill:var(--svg-fill-color);opacity:255;"></rect>
    <rect id="2-6" x="1" y="5" width="1" height="1" shape-rendering="crispEdges"
      style="fill:var(--svg-fill-color);opacity:255;"></rect>
    <rect id="3-6" x="2" y="5" width="1" height="1" shape-rendering="crispEdges"
      style="fill:var(--svg-fill-color);opacity:255;"></rect>
    <rect id="4-6" x="3" y="5" width="1" height="1" shape-rendering="crispEdges"
      style="fill:var(--svg-fill-color);opacity:255;"></rect>
    <rect id="5-6" x="4" y="5" width="1" height="1" shape-rendering="crispEdges"
      style="fill:var(--svg-fill-color);opacity:255;"></rect>
    <rect id="6-6" x="5" y="5" width="1" height="1" shape-rendering="crispEdges"
      style="fill:var(--svg-fill-color);opacity:255;"></rect>
    <rect id="7-6" x="6" y="5" width="1" height="1" shape-rendering="crispEdges"
      style="fill:var(--svg-fill-color);opacity:255;"></rect>
    <rect id="3-7" x="2" y="6" width="1" height="1" shape-rendering="crispEdges"
      style="fill:var(--svg-fill-color);opacity:255;"></rect>
    <rect id="4-7" x="3" y="6" width="1" height="1" shape-rendering="crispEdges"
      style="fill:var(--svg-fill-color);opacity:255;"></rect>
    <rect id="5-7" x="4" y="6" width="1" height="1" shape-rendering="crispEdges"
      style="fill:var(--svg-fill-color);opacity:255;"></rect>
    <rect id="6-7" x="5" y="6" width="1" height="1" shape-rendering="crispEdges"
      style="fill:var(--svg-fill-color);opacity:255;"></rect>
    <rect id="4-8" x="3" y="7" width="1" height="1" shape-rendering="crispEdges"
      style="fill:var(--svg-fill-color);opacity:255;"></rect>
    <rect id="5-8" x="4" y="7" width="1" height="1" shape-rendering="crispEdges"
      style="fill:var(--svg-fill-color);opacity:255;"></rect>
  </g>
</svg>