<?xml version="1.0" encoding="UTF-8" standalone="no"?>
<svg xmlns="http://www.w3.org/2000/svg" id="unplugged" width="16"
  height="16" viewBox="0 0 16 16" preserveAspectRatio="xMidYMid meet" rendering="crispEdges">
  <g>
    <rect id="5-2" x="4" y="1" width="1" height="1" shape-rendering="crispEdges"
      style="fill:var(--svg-fill-color);opacity:255;"></rect>
    <rect id="6-2" x="5" y="1" width="1" height="1" shape-rendering="crispEdges"
      style="fill:var(--svg-fill-color);opacity:255;"></rect>
    <rect id="7-2" x="6" y="1" width="1" height="1" shape-rendering="crispEdges"
      style="fill:var(--svg-fill-color);opacity:255;"></rect>
    <rect id="8-2" x="7" y="1" width="1" height="1" shape-rendering="crispEdges"
      style="fill:var(--svg-fill-color);opacity:255;"></rect>
    <rect id="9-2" x="8" y="1" width="1" height="1" shape-rendering="crispEdges"
      style="fill:var(--svg-fill-color);opacity:255;"></rect>
    <rect id="10-2" x="9" y="1" width="1" height="1" shape-rendering="crispEdges"
      style="fill:var(--svg-fill-color);opacity:255;"></rect>
    <rect id="11-2" x="10" y="1" width="1" height="1" shape-rendering="crispEdges"
      style="fill:var(--svg-fill-color);opacity:255;"></rect>
    <rect id="12-2" x="11" y="1" width="1" height="1" shape-rendering="crispEdges"
      style="fill:var(--svg-fill-color);opacity:255;"></rect>
    <rect id="4-3" x="3" y="2" width="1" height="1" shape-rendering="crispEdges"
      style="fill:var(--svg-fill-color);opacity:255;"></rect>
    <rect id="13-3" x="12" y="2" width="1" height="1" shape-rendering="crispEdges"
      style="fill:var(--svg-fill-color);opacity:255;"></rect>
    <rect id="4-4" x="3" y="3" width="1" height="1" shape-rendering="crispEdges"
      style="fill:var(--svg-fill-color);opacity:255;"></rect>
    <rect id="6-4" x="5" y="3" width="1" height="1" shape-rendering="crispEdges"
      style="fill:var(--svg-fill-color);opacity:255;"></rect>
    <rect id="11-4" x="10" y="3" width="1" height="1" shape-rendering="crispEdges"
      style="fill:var(--svg-fill-color);opacity:255;"></rect>
    <rect id="13-4" x="12" y="3" width="1" height="1" shape-rendering="crispEdges"
      style="fill:var(--svg-fill-color);opacity:255;"></rect>
    <rect id="4-5" x="3" y="4" width="1" height="1" shape-rendering="crispEdges"
      style="fill:var(--svg-fill-color);opacity:255;"></rect>
    <rect id="13-5" x="12" y="4" width="1" height="1" shape-rendering="crispEdges"
      style="fill:var(--svg-fill-color);opacity:255;"></rect>
    <rect id="5-6" x="4" y="5" width="1" height="1" shape-rendering="crispEdges"
      style="fill:var(--svg-fill-color);opacity:255;"></rect>
    <rect id="6-6" x="5" y="5" width="1" height="1" shape-rendering="crispEdges"
      style="fill:var(--svg-fill-color);opacity:255;"></rect>
    <rect id="7-6" x="6" y="5" width="1" height="1" shape-rendering="crispEdges"
      style="fill:var(--svg-fill-color);opacity:255;"></rect>
    <rect id="8-6" x="7" y="5" width="1" height="1" shape-rendering="crispEdges"
      style="fill:var(--svg-fill-color);opacity:255;"></rect>
    <rect id="9-6" x="8" y="5" width="1" height="1" shape-rendering="crispEdges"
      style="fill:var(--svg-fill-color);opacity:255;"></rect>
    <rect id="10-6" x="9" y="5" width="1" height="1" shape-rendering="crispEdges"
      style="fill:var(--svg-fill-color);opacity:255;"></rect>
    <rect id="11-6" x="10" y="5" width="1" height="1" shape-rendering="crispEdges"
      style="fill:var(--svg-fill-color);opacity:255;"></rect>
    <rect id="12-6" x="11" y="5" width="1" height="1" shape-rendering="crispEdges"
      style="fill:var(--svg-fill-color);opacity:255;"></rect>
    <rect id="6-8" x="5" y="7" width="1" height="1" shape-rendering="crispEdges"
      style="fill:var(--svg-fill-color);opacity:255;"></rect>
    <rect id="11-8" x="10" y="7" width="1" height="1" shape-rendering="crispEdges"
      style="fill:var(--svg-fill-color);opacity:255;"></rect>
    <rect id="6-9" x="5" y="8" width="1" height="1" shape-rendering="crispEdges"
      style="fill:var(--svg-fill-color);opacity:255;"></rect>
    <rect id="11-9" x="10" y="8" width="1" height="1" shape-rendering="crispEdges"
      style="fill:var(--svg-fill-color);opacity:255;"></rect>
    <rect id="5-10" x="4" y="9" width="1" height="1" shape-rendering="crispEdges"
      style="fill:var(--svg-fill-color);opacity:255;"></rect>
    <rect id="6-10" x="5" y="9" width="1" height="1" shape-rendering="crispEdges"
      style="fill:var(--svg-fill-color);opacity:255;"></rect>
    <rect id="7-10" x="6" y="9" width="1" height="1" shape-rendering="crispEdges"
      style="fill:var(--svg-fill-color);opacity:255;"></rect>
    <rect id="8-10" x="7" y="9" width="1" height="1" shape-rendering="crispEdges"
      style="fill:var(--svg-fill-color);opacity:255;"></rect>
    <rect id="9-10" x="8" y="9" width="1" height="1" shape-rendering="crispEdges"
      style="fill:var(--svg-fill-color);opacity:255;"></rect>
    <rect id="10-10" x="9" y="9" width="1" height="1" shape-rendering="crispEdges"
      style="fill:var(--svg-fill-color);opacity:255;"></rect>
    <rect id="11-10" x="10" y="9" width="1" height="1" shape-rendering="crispEdges"
      style="fill:var(--svg-fill-color);opacity:255;"></rect>
    <rect id="12-10" x="11" y="9" width="1" height="1" shape-rendering="crispEdges"
      style="fill:var(--svg-fill-color);opacity:255;"></rect>
    <rect id="5-11" x="4" y="10" width="1" height="1" shape-rendering="crispEdges"
      style="fill:var(--svg-fill-color);opacity:255;"></rect>
    <rect id="12-11" x="11" y="10" width="1" height="1" shape-rendering="crispEdges"
      style="fill:var(--svg-fill-color);opacity:255;"></rect>
    <rect id="5-12" x="4" y="11" width="1" height="1" shape-rendering="crispEdges"
      style="fill:var(--svg-fill-color);opacity:255;"></rect>
    <rect id="12-12" x="11" y="11" width="1" height="1" shape-rendering="crispEdges"
      style="fill:var(--svg-fill-color);opacity:255;"></rect>
    <rect id="6-13" x="5" y="12" width="1" height="1" shape-rendering="crispEdges"
      style="fill:var(--svg-fill-color);opacity:255;"></rect>
    <rect id="11-13" x="10" y="12" width="1" height="1" shape-rendering="crispEdges"
      style="fill:var(--svg-fill-color);opacity:255;"></rect>
    <rect id="7-14" x="6" y="13" width="1" height="1" shape-rendering="crispEdges"
      style="fill:var(--svg-fill-color);opacity:255;"></rect>
    <rect id="8-14" x="7" y="13" width="1" height="1" shape-rendering="crispEdges"
      style="fill:var(--svg-fill-color);opacity:255;"></rect>
    <rect id="9-14" x="8" y="13" width="1" height="1" shape-rendering="crispEdges"
      style="fill:var(--svg-fill-color);opacity:255;"></rect>
    <rect id="10-14" x="9" y="13" width="1" height="1" shape-rendering="crispEdges"
      style="fill:var(--svg-fill-color);opacity:255;"></rect>
    <rect id="8-15" x="7" y="14" width="1" height="1" shape-rendering="crispEdges"
      style="fill:var(--svg-fill-color);opacity:255;"></rect>
    <rect id="9-15" x="8" y="14" width="1" height="1" shape-rendering="crispEdges"
      style="fill:var(--svg-fill-color);opacity:255;"></rect>
  </g>
</svg>