<?xml version="1.0" encoding="UTF-8" standalone="no"?>
<svg xmlns="http://www.w3.org/2000/svg" id="unplugged" width="16"
  height="16" viewBox="0 0 16 16" preserveAspectRatio="xMidYMid meet" rendering="crispEdges">
  <rect id="5-1" x="4" y="0" width="1" height="1" shape-rendering="crispEdges"
    style="fill:var(--svg-fill-color);opacity:255;"></rect>
  <rect id="6-1" x="5" y="0" width="1" height="1" shape-rendering="crispEdges"
    style="fill:var(--svg-fill-color);opacity:255;"></rect>
  <rect id="7-1" x="6" y="0" width="1" height="1" shape-rendering="crispEdges"
    style="fill:var(--svg-fill-color);opacity:255;"></rect>
  <rect id="8-1" x="7" y="0" width="1" height="1" shape-rendering="crispEdges"
    style="fill:var(--svg-fill-color);opacity:255;"></rect>
  <rect id="9-1" x="8" y="0" width="1" height="1" shape-rendering="crispEdges"
    style="fill:var(--svg-fill-color);opacity:255;"></rect>
  <rect id="10-1" x="9" y="0" width="1" height="1" shape-rendering="crispEdges"
    style="fill:var(--svg-fill-color);opacity:255;"></rect>
  <rect id="11-1" x="10" y="0" width="1" height="1" shape-rendering="crispEdges"
    style="fill:var(--svg-fill-color);opacity:255;"></rect>
  <rect id="12-1" x="11" y="0" width="1" height="1" shape-rendering="crispEdges"
    style="fill:var(--svg-fill-color);opacity:255;"></rect>
  <rect id="4-2" x="3" y="1" width="1" height="1" shape-rendering="crispEdges"
    style="fill:var(--svg-fill-color);opacity:255;"></rect>
  <rect id="13-2" x="12" y="1" width="1" height="1" shape-rendering="crispEdges"
    style="fill:var(--svg-fill-color);opacity:255;"></rect>
  <rect id="4-3" x="3" y="2" width="1" height="1" shape-rendering="crispEdges"
    style="fill:var(--svg-fill-color);opacity:255;"></rect>
  <rect id="6-3" x="5" y="2" width="1" height="1" shape-rendering="crispEdges"
    style="fill:var(--svg-fill-color);opacity:255;"></rect>
  <rect id="11-3" x="10" y="2" width="1" height="1" shape-rendering="crispEdges"
    style="fill:var(--svg-fill-color);opacity:255;"></rect>
  <rect id="13-3" x="12" y="2" width="1" height="1" shape-rendering="crispEdges"
    style="fill:var(--svg-fill-color);opacity:255;"></rect>
  <rect id="4-4" x="3" y="3" width="1" height="1" shape-rendering="crispEdges"
    style="fill:var(--svg-fill-color);opacity:255;"></rect>
  <rect id="13-4" x="12" y="3" width="1" height="1" shape-rendering="crispEdges"
    style="fill:var(--svg-fill-color);opacity:255;"></rect>
  <rect id="5-5" x="4" y="4" width="1" height="1" shape-rendering="crispEdges"
    style="fill:var(--svg-fill-color);opacity:255;"></rect>
  <rect id="6-5" x="5" y="4" width="1" height="1" shape-rendering="crispEdges"
    style="fill:var(--svg-fill-color);opacity:255;"></rect>
  <rect id="7-5" x="6" y="4" width="1" height="1" shape-rendering="crispEdges"
    style="fill:var(--svg-fill-color);opacity:255;"></rect>
  <rect id="8-5" x="7" y="4" width="1" height="1" shape-rendering="crispEdges"
    style="fill:var(--svg-fill-color);opacity:255;"></rect>
  <rect id="9-5" x="8" y="4" width="1" height="1" shape-rendering="crispEdges"
    style="fill:var(--svg-fill-color);opacity:255;"></rect>
  <rect id="10-5" x="9" y="4" width="1" height="1" shape-rendering="crispEdges"
    style="fill:var(--svg-fill-color);opacity:255;"></rect>
  <rect id="11-5" x="10" y="4" width="1" height="1" shape-rendering="crispEdges"
    style="fill:var(--svg-fill-color);opacity:255;"></rect>
  <rect id="12-5" x="11" y="4" width="1" height="1" shape-rendering="crispEdges"
    style="fill:var(--svg-fill-color);opacity:255;"></rect>
  <rect id="6-7" x="5" y="6" width="1" height="1" shape-rendering="crispEdges"
    style="fill:var(--svg-fill-color);opacity:255;"></rect>
  <rect id="11-7" x="10" y="6" width="1" height="1" shape-rendering="crispEdges"
    style="fill:var(--svg-fill-color);opacity:255;"></rect>
  <rect id="6-8" x="5" y="7" width="1" height="1" shape-rendering="crispEdges"
    style="fill:var(--svg-fill-color);opacity:255;"></rect>
  <rect id="11-8" x="10" y="7" width="1" height="1" shape-rendering="crispEdges"
    style="fill:var(--svg-fill-color);opacity:255;"></rect>
  <rect id="5-9" x="4" y="8" width="1" height="1" shape-rendering="crispEdges"
    style="fill:var(--svg-fill-color);opacity:255;"></rect>
  <rect id="6-9" x="5" y="8" width="1" height="1" shape-rendering="crispEdges"
    style="fill:var(--svg-fill-color);opacity:255;"></rect>
  <rect id="7-9" x="6" y="8" width="1" height="1" shape-rendering="crispEdges"
    style="fill:var(--svg-fill-color);opacity:255;"></rect>
  <rect id="8-9" x="7" y="8" width="1" height="1" shape-rendering="crispEdges"
    style="fill:var(--svg-fill-color);opacity:255;"></rect>
  <rect id="9-9" x="8" y="8" width="1" height="1" shape-rendering="crispEdges"
    style="fill:var(--svg-fill-color);opacity:255;"></rect>
  <rect id="10-9" x="9" y="8" width="1" height="1" shape-rendering="crispEdges"
    style="fill:var(--svg-fill-color);opacity:255;"></rect>
  <rect id="11-9" x="10" y="8" width="1" height="1" shape-rendering="crispEdges"
    style="fill:var(--svg-fill-color);opacity:255;"></rect>
  <rect id="12-9" x="11" y="8" width="1" height="1" shape-rendering="crispEdges"
    style="fill:var(--svg-fill-color);opacity:255;"></rect>
  <rect id="5-10" x="4" y="9" width="1" height="1" shape-rendering="crispEdges"
    style="fill:var(--svg-fill-color);opacity:255;"></rect>
  <rect id="6-10" x="5" y="9" width="1" height="1" shape-rendering="crispEdges"
    style="fill:var(--svg-fill-color);opacity:255;"></rect>
  <rect id="7-10" x="6" y="9" width="1" height="1" shape-rendering="crispEdges"
    style="fill:var(--svg-fill-color);opacity:255;"></rect>
  <rect id="8-10" x="7" y="9" width="1" height="1" shape-rendering="crispEdges"
    style="fill:var(--svg-fill-color);opacity:255;"></rect>
  <rect id="9-10" x="8" y="9" width="1" height="1" shape-rendering="crispEdges"
    style="fill:var(--svg-fill-color);opacity:255;"></rect>
  <rect id="10-10" x="9" y="9" width="1" height="1" shape-rendering="crispEdges"
    style="fill:var(--svg-fill-color);opacity:255;"></rect>
  <rect id="11-10" x="10" y="9" width="1" height="1" shape-rendering="crispEdges"
    style="fill:var(--svg-fill-color);opacity:255;"></rect>
  <rect id="12-10" x="11" y="9" width="1" height="1" shape-rendering="crispEdges"
    style="fill:var(--svg-fill-color);opacity:255;"></rect>
  <rect id="5-11" x="4" y="10" width="1" height="1" shape-rendering="crispEdges"
    style="fill:var(--svg-fill-color);opacity:255;"></rect>
  <rect id="12-11" x="11" y="10" width="1" height="1" shape-rendering="crispEdges"
    style="fill:var(--svg-fill-color);opacity:255;"></rect>
  <rect id="5-12" x="4" y="11" width="1" height="1" shape-rendering="crispEdges"
    style="fill:var(--svg-fill-color);opacity:255;"></rect>
  <rect id="12-12" x="11" y="11" width="1" height="1" shape-rendering="crispEdges"
    style="fill:var(--svg-fill-color);opacity:255;"></rect>
  <rect id="6-13" x="5" y="12" width="1" height="1" shape-rendering="crispEdges"
    style="fill:var(--svg-fill-color);opacity:255;"></rect>
  <rect id="11-13" x="10" y="12" width="1" height="1" shape-rendering="crispEdges"
    style="fill:var(--svg-fill-color);opacity:255;"></rect>
  <rect id="7-14" x="6" y="13" width="1" height="1" shape-rendering="crispEdges"
    style="fill:var(--svg-fill-color);opacity:255;"></rect>
  <rect id="8-14" x="7" y="13" width="1" height="1" shape-rendering="crispEdges"
    style="fill:var(--svg-fill-color);opacity:255;"></rect>
  <rect id="9-14" x="8" y="13" width="1" height="1" shape-rendering="crispEdges"
    style="fill:var(--svg-fill-color);opacity:255;"></rect>
  <rect id="10-14" x="9" y="13" width="1" height="1" shape-rendering="crispEdges"
    style="fill:var(--svg-fill-color);opacity:255;"></rect>
  <rect id="8-15" x="7" y="14" width="1" height="1" shape-rendering="crispEdges"
    style="fill:var(--svg-fill-color);opacity:255;"></rect>
  <rect id="9-15" x="8" y="14" width="1" height="1" shape-rendering="crispEdges"
    style="fill:var(--svg-fill-color);opacity:255;"></rect>
  <rect id="8-16" x="7" y="15" width="1" height="1" shape-rendering="crispEdges"
    style="fill:var(--svg-fill-color);opacity:255;"></rect>
  <rect id="9-16" x="8" y="15" width="1" height="1" shape-rendering="crispEdges"
    style="fill:var(--svg-fill-color);opacity:255;"></rect>
</svg>