<?xml version="1.0" encoding="UTF-8" standalone="no"?>
<!DOCTYPE svg PUBLIC "-//W3C//DTD SVG 1.1//EN" "http://www.w3.org/Graphics/SVG/1.1/DTD/svg11.dtd">
<svg width="100%" height="100%" viewBox="0 0 64 64" version="1.1" xmlns="http://www.w3.org/2000/svg" xmlns:xlink="http://www.w3.org/1999/xlink" xml:space="preserve" xmlns:serif="http://www.serif.com/" style="fill-rule:evenodd;clip-rule:evenodd;stroke-linejoin:round;stroke-miterlimit:2;">
    <g transform="matrix(1,0,0,1,-160,-96)">
        <g class="speech-bubble">
            <rect x="160" y="112" width="4" height="16"/>
            <rect x="164" y="104" width="4" height="8"/>
            <rect x="168" y="100" width="8" height="4"/>
            <rect x="176" y="96" width="32" height="4"/>
            <rect x="208" y="100" width="8" height="4"/>
            <rect x="216" y="104" width="4" height="8"/>
            <rect x="220" y="112" width="4" height="16"/>
            <rect x="216" y="128" width="4" height="8"/>
            <rect x="208" y="136" width="8" height="4"/>
            <rect x="200" y="140" width="4" height="8"/>
            <rect x="204" y="140" width="4" height="4"/>
            <rect x="196" y="148" width="4" height="4"/>
            <rect x="192" y="152" width="4" height="4"/>
            <rect x="184" y="156" width="8" height="4"/>
            <rect x="184" y="152" width="4" height="4"/>
            <rect x="188" y="140" width="4" height="12"/>
            <rect x="176" y="140" width="12" height="4"/>
            <rect x="164" y="128" width="4" height="8"/>
            <rect x="168" y="136" width="8" height="4"/>
        </g>
    </g>
</svg>
