<?xml version="1.0" encoding="UTF-8" standalone="no"?>
<!DOCTYPE svg PUBLIC "-//W3C//DTD SVG 1.1//EN" "http://www.w3.org/Graphics/SVG/1.1/DTD/svg11.dtd">
<svg width="100%" height="100%" viewBox="0 0 32 32" version="1.1" xmlns="http://www.w3.org/2000/svg" xmlns:xlink="http://www.w3.org/1999/xlink" xml:space="preserve" xmlns:serif="http://www.serif.com/" style="fill-rule:evenodd;clip-rule:evenodd;stroke-linejoin:round;stroke-miterlimit:2;">
    <g transform="matrix(1,0,0,1,-66,-272)">
        <g id="link" transform="matrix(1,0,0,1,-116,-89.9735)">
            <g transform="matrix(0.8,0,0,0.48,32.8,196.88)">
                <rect x="189" y="369" width="5" height="25"/>
            </g>
            <g transform="matrix(0.8,0,0,0.48,56.8,196.854)">
                <rect x="189" y="369" width="5" height="25"/>
            </g>
            <g transform="matrix(4.89859e-17,-0.8,0.48,2.93915e-17,14.88,533.2)">
                <rect x="189" y="369" width="5" height="25"/>
            </g>
            <g transform="matrix(1.14286,0,0,0.571429,-34.8571,163.688)">
                <rect x="195" y="361" width="7" height="7"/>
            </g>
            <g transform="matrix(1.14286,0,0,0.571429,-34.8571,179.714)">
                <rect x="195" y="361" width="7" height="7"/>
            </g>
            <g transform="matrix(1.14286,0,0,0.571429,-22.8571,163.688)">
                <rect x="195" y="361" width="7" height="7"/>
            </g>
            <g transform="matrix(1.14286,0,0,0.571429,-22.8571,179.714)">
                <rect x="195" y="361" width="7" height="7"/>
            </g>
        </g>
    </g>
</svg>
