<?xml version="1.0" encoding="UTF-8" standalone="no"?>
<!DOCTYPE svg PUBLIC "-//W3C//DTD SVG 1.1//EN" "http://www.w3.org/Graphics/SVG/1.1/DTD/svg11.dtd">
<svg width="100%" height="100%" viewBox="0 0 32 32" version="1.1" xmlns="http://www.w3.org/2000/svg" xmlns:xlink="http://www.w3.org/1999/xlink" xml:space="preserve" xmlns:serif="http://www.serif.com/" style="fill-rule:evenodd;clip-rule:evenodd;stroke-linejoin:round;stroke-miterlimit:2;">
    <g transform="matrix(1,0,0,1,-220,-194)">
        <g transform="matrix(1,0,0,1,40,-168)">
            <g id="mini-moon">
                <g>
                    <g id="button">
                        <g transform="matrix(0.8,0,0,0.64,28.8,133.84)">
                            <rect x="189" y="369" width="5" height="25"/>
                        </g>
                        <g transform="matrix(4.89859e-17,-0.8,0.48,2.93915e-17,10.88,517.2)">
                            <rect x="189" y="369" width="5" height="25"/>
                        </g>
                        <g transform="matrix(4.89859e-17,-0.8,0.64,3.91887e-17,-48.16,545.2)">
                            <rect x="189" y="369" width="5" height="25"/>
                        </g>
                        <g transform="matrix(0.571429,0,0,0.571429,72.5714,159.714)">
                            <rect x="195" y="361" width="7" height="7"/>
                        </g>
                        <g transform="matrix(0.571429,0,0,0.571429,80.5714,171.714)">
                            <rect x="195" y="361" width="7" height="7"/>
                        </g>
                        <g transform="matrix(0.571429,0,0,0.571429,84.6072,175.633)">
                            <rect x="195" y="361" width="7" height="7"/>
                        </g>
                        <g transform="matrix(0.571429,0,0,0.571429,88.6072,175.633)">
                            <rect x="195" y="361" width="7" height="7"/>
                        </g>
                        <g transform="matrix(0.571429,0,0,0.571429,88.5714,155.714)">
                            <rect x="195" y="361" width="7" height="7"/>
                        </g>
                        <g transform="matrix(0.571429,0,0,0.571429,84.5714,159.714)">
                            <rect x="195" y="361" width="7" height="7"/>
                        </g>
                        <g transform="matrix(0.571429,0,0,0.584221,80.5714,159.096)">
                            <rect x="195" y="361" width="7" height="7"/>
                        </g>
                        <g transform="matrix(0.571429,0,0,0.571429,80.5714,167.804)">
                            <rect x="195" y="361" width="7" height="7"/>
                        </g>
                        <g transform="matrix(0.571429,0,0,0.571429,72.5749,179.67)">
                            <rect x="195" y="361" width="7" height="7"/>
                        </g>
                        <g transform="matrix(0.571429,0,0,0.571429,92.5714,179.714)">
                            <rect x="195" y="361" width="7" height="7"/>
                        </g>
                    </g>
                </g>
            </g>
        </g>
    </g>
</svg>
