<?xml version="1.0" encoding="UTF-8" standalone="no"?>
<!DOCTYPE svg PUBLIC "-//W3C//DTD SVG 1.1//EN" "http://www.w3.org/Graphics/SVG/1.1/DTD/svg11.dtd">
<svg width="100%" height="100%" viewBox="0 0 32 32" version="1.1" xmlns="http://www.w3.org/2000/svg" xmlns:xlink="http://www.w3.org/1999/xlink" xml:space="preserve" xmlns:serif="http://www.serif.com/" style="fill-rule:evenodd;clip-rule:evenodd;stroke-linejoin:round;stroke-miterlimit:2;">
    <g transform="matrix(1,0,0,1,-178,-371)">
        <g id="rss" transform="matrix(1,0,0,1,-6,10.0166)">
            <g transform="matrix(0.571429,0,0,0.571429,72.5714,167.698)">
                <rect x="195" y="361" width="7" height="7"/>
            </g>
            <g transform="matrix(0.571429,0,0,0.571429,80.5714,171.698)">
                <rect x="195" y="361" width="7" height="7"/>
            </g>
            <g transform="matrix(0.571429,0,0,0.571429,72.5749,179.67)">
                <rect x="195" y="361" width="7" height="7"/>
            </g>
            <g transform="matrix(0.571429,0,0,0.571429,88.5714,159.725)">
                <rect x="195" y="361" width="7" height="7"/>
            </g>
            <g transform="matrix(0.571429,0,0,0.571429,92.5714,163.698)">
                <rect x="195" y="361" width="7" height="7"/>
            </g>
            <g transform="matrix(0.571429,0,0,0.571429,76.5714,167.698)">
                <rect x="195" y="361" width="7" height="7"/>
            </g>
            <g transform="matrix(0.571429,0,0,0.571429,84.5714,155.725)">
                <rect x="195" y="361" width="7" height="7"/>
            </g>
            <g transform="matrix(0.571429,0,0,0.571429,84.5714,175.698)">
                <rect x="195" y="361" width="7" height="7"/>
            </g>
            <g transform="matrix(0.571429,0,0,2.28571,96.5714,-451.159)">
                <rect x="195" y="361" width="7" height="7"/>
            </g>
            <g transform="matrix(3.49899e-17,0.571429,-1.71429,1.0497e-16,814.857,250.582)">
                <rect x="195" y="361" width="7" height="7"/>
            </g>
            <g transform="matrix(0.571429,0,0,0.571429,84.5714,179.698)">
                <rect x="195" y="361" width="7" height="7"/>
            </g>
        </g>
    </g>
</svg>
