<?xml version="1.0" encoding="UTF-8" standalone="no"?>
<!DOCTYPE svg PUBLIC "-//W3C//DTD SVG 1.1//EN" "http://www.w3.org/Graphics/SVG/1.1/DTD/svg11.dtd">
<svg width="100%" height="100%" viewBox="0 0 32 33" version="1.1" xmlns="http://www.w3.org/2000/svg" xmlns:xlink="http://www.w3.org/1999/xlink" xml:space="preserve" xmlns:serif="http://www.serif.com/" style="fill-rule:evenodd;clip-rule:evenodd;stroke-linejoin:round;stroke-miterlimit:2;">
    <g transform="matrix(1,0,0,1,-168,-194)">
        <g id="sun" transform="matrix(1,0,0,1,-12,-168)">
            <g transform="matrix(0.8,0,0,0.32,36.8,255.92)">
                <rect x="189" y="369" width="5" height="25"/>
            </g>
            <g transform="matrix(0.8,0,0,0.32,48.8,255.92)">
                <rect x="189" y="369" width="5" height="25"/>
            </g>
            <g transform="matrix(4.89859e-17,-0.8,0.32,1.95943e-17,73.92,525.2)">
                <rect x="189" y="369" width="5" height="25"/>
            </g>
            <g transform="matrix(0.571429,0,0,0.571429,72.5714,155.714)">
                <rect x="195" y="361" width="7" height="7"/>
            </g>
            <g transform="matrix(0.571429,0,0,0.571429,84.5714,155.714)">
                <rect x="195" y="361" width="7" height="7"/>
            </g>
            <g transform="matrix(0.571429,0,0,0.571429,68.5714,167.714)">
                <rect x="195" y="361" width="7" height="7"/>
            </g>
            <g transform="matrix(0.571429,0,0,0.571429,96.5714,171.714)">
                <rect x="195" y="361" width="7" height="7"/>
            </g>
            <g transform="matrix(0.571429,0,0,0.571429,80.5714,183.714)">
                <rect x="195" y="361" width="7" height="7"/>
            </g>
            <g transform="matrix(1.14286,0,0,0.571429,-30.8571,175.714)">
                <rect x="195" y="361" width="7" height="7"/>
            </g>
            <g transform="matrix(0.571429,0,0,0.571429,92.5714,183.737)">
                <rect x="195" y="361" width="7" height="7"/>
            </g>
            <g transform="matrix(0.571429,0,0,0.571429,68.5714,179.737)">
                <rect x="195" y="361" width="7" height="7"/>
            </g>
            <g transform="matrix(0.571429,0,0,0.571429,96.5714,159.714)">
                <rect x="195" y="361" width="7" height="7"/>
            </g>
        </g>
    </g>
</svg>
