<?xml version="1.0" encoding="UTF-8" standalone="no"?>
<!DOCTYPE svg PUBLIC "-//W3C//DTD SVG 1.1//EN" "http://www.w3.org/Graphics/SVG/1.1/DTD/svg11.dtd">
<svg width="16" height="16" viewBox="0 0 16 16" version="1.1" xmlns="http://www.w3.org/2000/svg"
    xmlns:xlink="http://www.w3.org/1999/xlink" xml:space="preserve" xmlns:serif="http://www.serif.com/"
    style="fill-rule:evenodd;clip-rule:evenodd;stroke-linejoin:round;stroke-miterlimit:2;">
    <g>
        <path id="_4-1" serif:id="4-1"
            d="M11,13L12,13L12,12L13,12L13,11L14,11L14,10L15,10L15,9L16,9L16,3L15,3L15,2L14,2L14,1L13,1L13,0L10,0L10,1L9,1L9,2L7,2L7,1L6,1L6,0L3,0L3,1L2,1L2,2L1,2L1,3L0,3L0,9L1,9L1,10L2,10L2,11L3,11L3,12L4,12L4,13L5,13L5,14L6,14L6,15L7,15L7,16L9,16L9,15L10,15L10,14L11,14L11,13Z"
            style="fill:var(--svg-fill-color);" />
    </g>
</svg>