<?xml version="1.0" encoding="UTF-8" standalone="no"?>
<!DOCTYPE svg PUBLIC "-//W3C//DTD SVG 1.1//EN" "http://www.w3.org/Graphics/SVG/1.1/DTD/svg11.dtd">
<svg width="100%" height="100%" viewBox="0 0 16 16" version="1.1" xmlns="http://www.w3.org/2000/svg"
    xmlns:xlink="http://www.w3.org/1999/xlink" xml:space="preserve" xmlns:serif="http://www.serif.com/"
    style="fill-rule:evenodd;clip-rule:evenodd;stroke-linejoin:round;stroke-miterlimit:2;">
    <g>
        <rect id="_8-1" serif:id="8-1" x="7" y="0" width="2" height="1" style="fill:var(--svg-fill-color);" />
        <rect id="_7-2" serif:id="7-2" x="6" y="1" width="1" height="2" style="fill:var(--svg-fill-color);" />
        <rect id="_10-2" serif:id="10-2" x="9" y="1" width="1" height="2" style="fill:var(--svg-fill-color);" />
        <rect id="_6-4" serif:id="6-4" x="5" y="3" width="1" height="2" style="fill:var(--svg-fill-color);" />
        <rect id="_11-4" serif:id="11-4" x="10" y="3" width="1" height="2" style="fill:var(--svg-fill-color);" />
        <rect id="_2-6" serif:id="2-6" x="1" y="5" width="4" height="1" style="fill:var(--svg-fill-color);" />
        <rect id="_12-6" serif:id="12-6" x="11" y="5" width="4" height="1" style="fill:var(--svg-fill-color);" />
        <rect id="_1-7" serif:id="1-7" x="0" y="6" width="1" height="1" style="fill:var(--svg-fill-color);" />
        <rect id="_16-7" serif:id="16-7" x="15" y="6" width="1" height="1" style="fill:var(--svg-fill-color);" />
        <rect id="_2-8" serif:id="2-8" x="1" y="7" width="1" height="1" style="fill:var(--svg-fill-color);" />
        <rect id="_15-8" serif:id="15-8" x="14" y="7" width="1" height="1" style="fill:var(--svg-fill-color);" />
        <rect id="_3-9" serif:id="3-9" x="2" y="8" width="2" height="1" style="fill:var(--svg-fill-color);" />
        <rect id="_13-9" serif:id="13-9" x="12" y="8" width="2" height="1" style="fill:var(--svg-fill-color);" />
        <rect id="_5-10" serif:id="5-10" x="4" y="9" width="1" height="2" style="fill:var(--svg-fill-color);" />
        <rect id="_12-10" serif:id="12-10" x="11" y="9" width="1" height="2" style="fill:var(--svg-fill-color);" />
        <rect id="_4-12" serif:id="4-12" x="3" y="11" width="1" height="2" style="fill:var(--svg-fill-color);" />
        <rect id="_8-13" serif:id="8-13" x="7" y="12" width="2" height="1" style="fill:var(--svg-fill-color);" />
        <rect id="_13-12" serif:id="13-12" x="12" y="11" width="1" height="2" style="fill:var(--svg-fill-color);" />
        <rect id="_6-14" serif:id="6-14" x="5" y="13" width="2" height="1" style="fill:var(--svg-fill-color);" />
        <rect id="_10-14" serif:id="10-14" x="9" y="13" width="2" height="1" style="fill:var(--svg-fill-color);" />
        <path id="_3-14" serif:id="3-14" d="M2,13L2,15L5,15L5,14L3,14L3,13L2,13Z" style="fill:var(--svg-fill-color);" />
        <path id="_12-15" serif:id="12-15" d="M11,15L14,15L14,13L13,13L13,14L11,14L11,15Z"
            style="fill:var(--svg-fill-color);" />
    </g>
</svg>