<?xml version="1.0" encoding="UTF-8" standalone="no"?>
<!DOCTYPE svg PUBLIC "-//W3C//DTD SVG 1.1//EN" "http://www.w3.org/Graphics/SVG/1.1/DTD/svg11.dtd">
<svg width="16" height="16" viewBox="0 0 16 16" version="1.1" xmlns="http://www.w3.org/2000/svg"
    xmlns:xlink="http://www.w3.org/1999/xlink" xml:space="preserve" xmlns:serif="http://www.serif.com/"
    style="fill-rule:evenodd;clip-rule:evenodd;stroke-linejoin:round;stroke-miterlimit:2;">
    <g>
        <path id="_7-2" serif:id="7-2"
            d="M6,2L5,2L5,3L4,3L4,7L5,7L5,8L6,8L6,10L3,10L3,11L2,11L2,12L1,12L1,15L15,15L15,12L14,12L14,11L13,11L13,10L10,10L10,8L11,8L11,7L12,7L12,3L11,3L11,2L10,2L10,1L6,1L6,2Z"
            style="fill:var(--svg-fill-color);" />
    </g>
</svg>