<?xml version="1.0" encoding="UTF-8" standalone="no"?>
<!DOCTYPE svg PUBLIC "-//W3C//DTD SVG 1.1//EN" "http://www.w3.org/Graphics/SVG/1.1/DTD/svg11.dtd">
<svg width="100%" height="100%" viewBox="0 0 640 640" version="1.1" xmlns="http://www.w3.org/2000/svg"
    xmlns:xlink="http://www.w3.org/1999/xlink" xml:space="preserve" xmlns:serif="http://www.serif.com/"
    style="fill-rule:evenodd;clip-rule:evenodd;stroke-linejoin:round;stroke-miterlimit:2;">
    <path
        d="M183.1,137.4C170.6,124.9 150.3,124.9 137.8,137.4C125.3,149.9 125.3,170.2 137.8,182.7L275.2,320L137.9,457.4C125.4,469.9 125.4,490.2 137.9,502.7C150.4,515.2 170.7,515.2 183.2,502.7L320.5,365.3L457.9,502.6C470.4,515.1 490.7,515.1 503.2,502.6C515.7,490.1 515.7,469.8 503.2,457.3L365.8,320L503.1,182.6C515.6,170.1 515.6,149.8 503.1,137.3C490.6,124.8 470.3,124.8 457.8,137.3L320.5,274.7L183.1,137.4Z"
        style="fill:var(--svg-fill-color);fill-rule:nonzero;" />
</svg>