<?xml version="1.0" encoding="UTF-8" standalone="no"?>
<!DOCTYPE svg PUBLIC "-//W3C//DTD SVG 1.1//EN" "http://www.w3.org/Graphics/SVG/1.1/DTD/svg11.dtd">
<svg width="100%" height="100%" viewBox="0 0 1146 121" version="1.1" xmlns="http://www.w3.org/2000/svg" xmlns:xlink="http://www.w3.org/1999/xlink" xml:space="preserve" xmlns:serif="http://www.serif.com/" style="fill-rule:evenodd;clip-rule:evenodd;stroke-linejoin:round;stroke-miterlimit:2;">
    <g id="Artboard1" transform="matrix(1,0,0,1,-48.3545,-245.004)">
        <rect x="48.355" y="245.004" width="1146" height="120.8" style="fill:none;"/>
        <g>
            <clipPath id="_clip1">
                <rect x="48.355" y="245.004" width="1146" height="120.8"/>
            </clipPath>
            <g clip-path="url(#_clip1)">
                <g transform="matrix(1,0,0,1,69.6247,136.566)">
                    <path d="M-20.916,133.908L6.018,133.908L6.018,205.508L33.884,205.508L33.884,133.908L61.218,133.908L61.218,110.174L-20.916,110.174L-20.916,133.908Z" style="fill:var(--svg-fill-color);fill-rule:nonzero;"/>
                    <path d="M92.951,110.174L67.751,110.174L67.751,205.508L92.951,205.508L92.951,168.841C92.951,161.508 96.818,155.908 103.218,155.908C109.751,155.908 112.684,160.574 112.684,167.641L112.684,205.508L137.884,205.508L137.884,161.508C137.884,145.908 129.751,135.374 114.018,135.374C104.551,135.374 98.418,139.374 93.351,145.241L92.951,145.241L92.951,110.174Z" style="fill:var(--svg-fill-color);fill-rule:nonzero;"/>
                    <path d="M180.818,207.374C189.484,207.374 196.284,205.641 202.551,201.641C209.218,197.374 214.018,191.374 215.484,185.241L191.084,185.241C189.218,188.574 186.018,190.308 181.618,190.308C174.018,190.308 169.751,185.508 168.284,177.641L216.818,177.641C217.084,164.174 213.218,152.041 204.951,144.441C198.684,138.708 190.551,135.241 179.884,135.241C158.418,135.241 143.618,150.841 143.618,171.374C143.618,192.174 158.551,207.374 180.818,207.374ZM180.418,152.174C186.418,152.174 190.684,156.708 191.751,164.308L168.284,164.308C169.618,156.841 173.484,152.174 180.418,152.174Z" style="fill:var(--svg-fill-color);fill-rule:nonzero;"/>
                    <path d="M244.151,205.508L286.951,205.508C316.551,205.508 334.684,188.441 334.684,158.041C334.684,127.774 315.618,110.174 288.151,110.174L244.151,110.174L244.151,205.508ZM272.018,182.441L272.018,133.241L284.684,133.241C298.018,133.241 306.418,142.308 306.418,158.041C306.418,174.174 297.484,182.441 284.684,182.441L272.018,182.441Z" style="fill:var(--svg-fill-color);fill-rule:nonzero;"/>
                    <path d="M341.218,205.508L366.418,205.508L366.418,137.508L341.218,137.508L341.218,205.508ZM341.218,129.241L366.418,129.241L366.418,110.174L341.218,110.174L341.218,129.241Z" style="fill:var(--svg-fill-color);fill-rule:nonzero;"/>
                    <path d="M408.818,229.241C418.951,229.241 427.884,227.108 434.151,221.774C440.151,216.708 444.151,208.308 444.151,197.374L444.151,137.508L420.151,137.508L420.151,144.974L419.751,144.974C415.884,139.108 410.018,135.374 400.418,135.374C383.751,135.374 372.684,150.574 372.684,170.041C372.684,191.374 386.151,202.174 401.618,202.174C409.484,202.174 414.818,198.974 418.818,194.441L419.351,194.441L419.351,200.574C419.351,207.641 416.551,212.441 408.418,212.441C402.418,212.441 399.218,209.508 398.284,206.708L374.018,206.708C376.418,221.774 389.751,229.241 408.818,229.241ZM408.818,184.574C401.751,184.574 397.218,178.041 397.218,168.974C397.218,159.774 401.751,153.641 408.818,153.641C416.151,153.641 420.418,160.441 420.418,168.974C420.418,177.908 416.151,184.574 408.818,184.574Z" style="fill:var(--svg-fill-color);fill-rule:nonzero;"/>
                    <path d="M453.218,205.508L478.418,205.508L478.418,137.508L453.218,137.508L453.218,205.508ZM453.218,129.241L478.418,129.241L478.418,110.174L453.218,110.174L453.218,129.241Z" style="fill:var(--svg-fill-color);fill-rule:nonzero;"/>
                    <path d="M483.884,152.708L492.684,152.708L492.684,185.908C492.684,202.174 501.084,206.841 517.618,206.841C522.151,206.841 526.151,206.174 530.018,205.241L530.018,186.708C522.151,187.241 517.351,187.108 517.351,180.308L517.351,152.708L530.284,152.708L530.284,137.508L517.351,137.508L517.351,115.508L492.684,115.508L492.684,137.508L483.884,137.508L483.884,152.708Z" style="fill:var(--svg-fill-color);fill-rule:nonzero;"/>
                    <path d="M580.818,205.508L605.618,205.508L605.618,204.441C603.484,203.108 603.084,200.041 603.084,194.308L603.084,160.308C603.084,151.241 599.618,144.308 592.551,139.908C587.351,136.708 580.684,135.374 570.284,135.374C548.951,135.374 538.551,146.441 538.018,159.908L561.884,159.908C562.551,154.974 565.351,151.774 570.818,151.774C576.284,151.774 578.018,154.574 578.018,158.308C578.018,162.574 574.151,164.308 559.751,165.908C546.684,167.374 535.084,171.774 535.084,186.841C535.084,200.174 544.684,207.241 557.751,207.241C566.551,207.241 573.751,204.308 578.284,198.041L578.551,198.041C579.084,201.774 579.884,203.908 580.818,205.508ZM567.218,192.308C563.084,192.308 559.351,190.308 559.351,185.774C559.351,181.774 561.618,179.641 568.951,178.041C573.218,177.108 576.284,176.041 578.684,174.841L578.684,180.841C578.684,188.974 573.084,192.308 567.218,192.308Z" style="fill:var(--svg-fill-color);fill-rule:nonzero;"/>
                    <rect x="612.684" y="110.174" width="25.867" height="95.333" style="fill:var(--svg-fill-color);"/>
                    <path d="M713.218,207.774C727.084,207.774 737.218,204.308 745.351,196.441C752.151,189.908 756.951,180.574 757.751,170.041L729.618,170.041C728.684,178.574 722.818,184.974 713.084,184.974C700.684,184.974 693.218,173.774 693.218,158.174C693.218,142.574 699.618,131.374 712.818,131.374C721.884,131.374 728.151,138.041 728.818,145.508L756.684,145.508C755.484,133.374 749.751,122.708 739.884,115.908C732.951,111.108 723.618,108.441 713.218,108.441C684.551,108.441 664.951,129.641 664.951,158.174C664.951,186.708 684.151,207.774 713.218,207.774Z" style="fill:var(--svg-fill-color);fill-rule:nonzero;"/>
                    <path d="M806.018,205.508L830.818,205.508L830.818,204.441C828.684,203.108 828.284,200.041 828.284,194.308L828.284,160.308C828.284,151.241 824.818,144.308 817.751,139.908C812.551,136.708 805.884,135.374 795.484,135.374C774.151,135.374 763.751,146.441 763.218,159.908L787.084,159.908C787.751,154.974 790.551,151.774 796.018,151.774C801.484,151.774 803.218,154.574 803.218,158.308C803.218,162.574 799.351,164.308 784.951,165.908C771.884,167.374 760.284,171.774 760.284,186.841C760.284,200.174 769.884,207.241 782.951,207.241C791.751,207.241 798.951,204.308 803.484,198.041L803.751,198.041C804.284,201.774 805.084,203.908 806.018,205.508ZM792.418,192.308C788.284,192.308 784.551,190.308 784.551,185.774C784.551,181.774 786.818,179.641 794.151,178.041C798.418,177.108 801.484,176.041 803.884,174.841L803.884,180.841C803.884,188.974 798.284,192.308 792.418,192.308Z" style="fill:var(--svg-fill-color);fill-rule:nonzero;"/>
                    <path d="M861.884,137.508L837.884,137.508L837.884,205.508L863.084,205.508L863.084,168.841C863.084,161.508 866.951,155.908 873.351,155.908C879.884,155.908 882.818,160.574 882.818,167.641L882.818,205.508L908.018,205.508L908.018,161.508C908.018,145.908 899.884,135.374 884.151,135.374C874.684,135.374 867.751,139.374 862.284,146.841L861.884,146.841L861.884,137.508Z" style="fill:var(--svg-fill-color);fill-rule:nonzero;"/>
                    <path d="M933.084,205.508L962.551,205.508L985.884,137.508L960.551,137.508L952.818,163.641C950.818,170.574 948.284,180.041 948.284,180.041L948.018,180.041C948.018,180.041 945.618,170.574 943.618,163.641L935.884,137.508L909.751,137.508L933.084,205.508Z" style="fill:var(--svg-fill-color);fill-rule:nonzero;"/>
                    <path d="M1029.48,205.508L1054.28,205.508L1054.28,204.441C1052.15,203.108 1051.75,200.041 1051.75,194.308L1051.75,160.308C1051.75,151.241 1048.28,144.308 1041.22,139.908C1036.02,136.708 1029.35,135.374 1018.95,135.374C997.618,135.374 987.218,146.441 986.684,159.908L1010.55,159.908C1011.22,154.974 1014.02,151.774 1019.48,151.774C1024.95,151.774 1026.68,154.574 1026.68,158.308C1026.68,162.574 1022.82,164.308 1008.42,165.908C995.351,167.374 983.751,171.774 983.751,186.841C983.751,200.174 993.351,207.241 1006.42,207.241C1015.22,207.241 1022.42,204.308 1026.95,198.041L1027.22,198.041C1027.75,201.774 1028.55,203.908 1029.48,205.508ZM1015.88,192.308C1011.75,192.308 1008.02,190.308 1008.02,185.774C1008.02,181.774 1010.28,179.641 1017.62,178.041C1021.88,177.108 1024.95,176.041 1027.35,174.841L1027.35,180.841C1027.35,188.974 1021.75,192.308 1015.88,192.308Z" style="fill:var(--svg-fill-color);fill-rule:nonzero;"/>
                    <path d="M1091.62,207.774C1110.28,207.774 1125.08,200.708 1125.08,184.441C1125.08,165.508 1109.35,162.708 1096.95,160.974C1089.22,159.908 1082.95,159.108 1082.95,155.241C1082.95,151.774 1086.42,150.308 1090.15,150.308C1094.28,150.308 1098.02,151.374 1098.68,156.441L1122.42,156.441C1121.48,143.108 1110.68,135.374 1090.02,135.374C1073.35,135.374 1059.08,143.108 1059.08,157.108C1059.08,174.174 1072.28,177.241 1083.75,178.974C1092.55,180.308 1100.42,180.974 1100.42,186.574C1100.42,190.708 1096.68,192.441 1091.75,192.441C1085.35,192.441 1081.88,189.108 1081.48,183.508L1057.35,183.508C1057.48,199.108 1071.48,207.774 1091.62,207.774Z" style="fill:var(--svg-fill-color);fill-rule:nonzero;"/>
                </g>
            </g>
        </g>
    </g>
</svg>
