<?xml version="1.0" encoding="UTF-8" standalone="no" ?>
<svg
  width="174.99001"
  height="471.69299"
  viewBox="0 0 174.99001 471.69299"
  version="1.1"
  xml:space="preserve"
  style="clip-rule:evenodd;fill-rule:evenodd;stroke-linejoin:round;stroke-miterlimit:2"
  id="svg16"
  sodipodi:docname="urinal-checkmate.svg"
  inkscape:version="1.4.3 (0d15f75042, 2025-12-25)"
  xmlns:inkscape="http://www.inkscape.org/namespaces/inkscape"
  xmlns:sodipodi="http://sodipodi.sourceforge.net/DTD/sodipodi-0.dtd"
  xmlns="http://www.w3.org/2000/svg"
  xmlns:svg="http://www.w3.org/2000/svg"
><defs id="defs16" /><sodipodi:namedview
    id="namedview16"
    pagecolor="#ffffff"
    bordercolor="#000000"
    borderopacity="0.25"
    inkscape:showpageshadow="2"
    inkscape:pageopacity="0.0"
    inkscape:pagecheckerboard="0"
    inkscape:deskcolor="#d1d1d1"
    inkscape:zoom="1.0192"
    inkscape:cx="87.323391"
    inkscape:cy="159.43878"
    inkscape:window-width="1536"
    inkscape:window-height="888"
    inkscape:window-x="0"
    inkscape:window-y="0"
    inkscape:window-maximized="1"
    inkscape:current-layer="g15"
  />
    <g transform="translate(-452.505,-333.305)" id="g16">
        <g id="g15">
            <g
        transform="translate(452.505,333.305)"
        id="g1"
        style="fill:var(--svg-fill-color)"
      >
                <path
          id="Shape"
          d="M 116.66,88.937 H 58.33 C 26.115,88.937 0,112.174 0,140.836 v 121.098 c 0,7.166 6.529,12.975 14.582,12.975 8.054,0 14.583,-5.809 14.583,-12.975 V 140.836 h 9.722 v 311.395 c 0,10.748 9.793,19.462 21.873,19.462 12.081,0 21.874,-8.714 21.874,-19.462 V 279.234 h 9.722 v 172.997 c 0,10.748 9.793,19.462 21.873,19.462 12.081,0 21.874,-8.714 21.874,-19.462 V 140.836 h 9.722 v 121.098 c 0,7.166 6.529,12.975 14.582,12.975 8.054,0 14.583,-5.809 14.583,-12.975 V 140.836 c 0,-28.662 -26.115,-51.899 -58.33,-51.899 z"
          style="fill:var(--svg-fill-color)"
        />
                <ellipse
          id="man-head"
          cx="87.849998"
          cy="39.327999"
          rx="39.603001"
          ry="39.327999"
          style="fill:var(--svg-fill-color)"
        />
            </g>

        </g>
    </g>
</svg>
